<?xml version="1.0" encoding="utf-8"?>
<!-- Generator: Adobe Illustrator 23.0.4, SVG Export Plug-In . SVG Version: 6.00 Build 0)  -->
<svg version="1.1" id="Layer_1" xmlns="http://www.w3.org/2000/svg" xmlns:xlink="http://www.w3.org/1999/xlink" x="0px" y="0px"
	 viewBox="0 0 345.83 107.72" style="enable-background:new 0 0 345.83 107.72;" xml:space="preserve">
<style type="text/css">
	.st0{fill:#FFFFFF;}
</style>
<g>
	<path class="st0" d="M119.15,70.3"/>
	<path class="st0" d="M158,31.18"/>
	<path class="st0" d="M251.35,72.53c0-1.46,1.11-2.63,2.63-2.63c1.46,0,2.63,1.17,2.63,2.63c0,1.46-1.17,2.63-2.63,2.63
		C252.46,75.16,251.35,73.99,251.35,72.53z"/>
	<path class="st0" d="M309.39,34.16c0-1.38,1.18-2.57,2.63-2.57c1.45,0,2.63,1.18,2.63,2.57c0,1.45-1.18,2.63-2.63,2.63
		C310.57,36.79,309.39,35.61,309.39,34.16z"/>
	<path class="st0" d="M96.27,42.77v1.5h9v3.02h-9v27.19h-3.08V47.3h-5.2v-3.02h5.2v-1.5c0-7.43,4.17-11.72,12.09-11.12v2.9
		C99.11,34.07,96.27,36.91,96.27,42.77z"/>
	<path class="st0" d="M140.91,59.5c0,0.48-0.06,0.97-0.06,1.45h-27.38c0.72,6.83,5.92,11.3,12.81,11.3c4.95,0,8.7-2.3,10.45-5.5
		l2.66,1.57c-2.48,4.11-7.19,6.83-13.18,6.83c-9.31,0-15.89-6.65-15.89-15.77c0-8.88,6.41-15.77,15.65-15.77
		C135.17,43.61,140.91,51.22,140.91,59.5z M113.48,57.99h24.29c-0.66-7.37-5.86-11.48-11.79-11.48
		C119.1,46.51,114.08,51.29,113.48,57.99z"/>
	<path class="st0" d="M158,47.3v19.91c0,5.32,2.84,5.44,9,4.9v2.72c-7.92,1.21-12.09-0.72-12.09-7.61V47.3h-6.65v-3.02h6.65v-9.57
		L158,31.6v12.68h9v3.02H158z"/>
	<path class="st0" d="M174.84,59.38c0-8.94,6.77-15.77,15.89-15.77c5.92,0,11,3.02,13.18,7.74l-2.48,1.45
		c-1.75-3.81-5.86-6.29-10.7-6.29c-7.31,0-12.81,5.68-12.81,12.87s5.5,12.87,12.81,12.87c4.9,0,8.88-2.54,10.88-6.29l2.54,1.51
		c-2.42,4.65-7.49,7.67-13.42,7.67C181.61,75.16,174.84,68.33,174.84,59.38z"/>
	<path class="st0" d="M240.81,55.7v18.79h-3.08V55.7c0-5.56-3.2-9.19-8.88-9.19c-5.92,0-10.58,3.87-10.58,12.03v15.95h-3.02V34.71
		l3.02-3.11v18.42c2.3-4.47,6.16-6.41,10.82-6.41C236.28,43.61,240.81,48.38,240.81,55.7z"/>
	<path class="st0" d="M296.75,44.28v30.22h-3.08v-6.83c-2.54,4.53-7.19,7.49-12.99,7.49c-8.58,0-15.65-6.83-15.65-15.77
		c0-8.94,7.07-15.77,15.65-15.77c5.8,0,10.46,2.96,12.99,7.49v-6.83H296.75z M293.66,59.38c0-7.19-5.56-12.87-12.75-12.87
		c-7.19,0-12.81,5.68-12.81,12.87s5.62,12.87,12.81,12.87C288.1,72.26,293.66,66.57,293.66,59.38z"/>
	<rect x="310.5" y="44.28" class="st0" width="3.02" height="30.22"/>
	<g>
		<rect x="31.18" y="31.6" class="st0" width="5.2" height="5.2"/>
		<rect x="44.18" y="31.6" class="st0" width="5.2" height="5.2"/>
		<rect x="57.18" y="31.6" class="st0" width="5.2" height="5.2"/>
		<rect x="31.18" y="44.6" class="st0" width="5.2" height="5.2"/>
		<rect x="44.18" y="44.6" class="st0" width="5.2" height="5.2"/>
		<rect x="31.18" y="57.59" class="st0" width="5.2" height="5.2"/>
		<circle class="st0" cx="72.78" cy="34.2" r="1.3"/>
		<circle class="st0" cx="72.78" cy="47.2" r="1.3"/>
		<circle class="st0" cx="72.78" cy="60.19" r="1.3"/>
		<circle class="st0" cx="72.78" cy="73.19" r="1.3"/>
		<circle class="st0" cx="59.78" cy="47.2" r="1.3"/>
		<circle class="st0" cx="59.78" cy="60.19" r="1.3"/>
		<circle class="st0" cx="59.78" cy="73.19" r="1.3"/>
		<circle class="st0" cx="46.78" cy="60.19" r="1.3"/>
		<circle class="st0" cx="46.78" cy="73.19" r="1.3"/>
		<circle class="st0" cx="33.78" cy="73.19" r="1.3"/>
	</g>
</g>
</svg>
