<?xml version="1.0" encoding="UTF-8" standalone="no"?>
<!-- Generator: Adobe Illustrator 23.0.4, SVG Export Plug-In . SVG Version: 6.00 Build 0)  -->

<svg
   xmlns:dc="http://purl.org/dc/elements/1.1/"
   xmlns:cc="http://creativecommons.org/ns#"
   xmlns:rdf="http://www.w3.org/1999/02/22-rdf-syntax-ns#"
   xmlns:svg="http://www.w3.org/2000/svg"
   xmlns="http://www.w3.org/2000/svg"
   xmlns:sodipodi="http://sodipodi.sourceforge.net/DTD/sodipodi-0.dtd"
   xmlns:inkscape="http://www.inkscape.org/namespaces/inkscape"
   version="1.1"
   id="Layer_1"
   x="0px"
   y="0px"
   viewBox="0 0 283.56251 107.6663"
   xml:space="preserve"
   sodipodi:docname="fetchai_logo_align_white.svg"
   width="283.5625"
   height="107.6663"
   inkscape:version="0.92.4 (5da689c313, 2019-01-14)"><metadata
   id="metadata947"><rdf:RDF><cc:Work
       rdf:about=""><dc:format>image/svg+xml</dc:format><dc:type
         rdf:resource="http://purl.org/dc/dcmitype/StillImage" /><dc:title></dc:title></cc:Work></rdf:RDF></metadata><defs
   id="defs945" /><sodipodi:namedview
   pagecolor="#ffffff"
   bordercolor="#666666"
   borderopacity="1"
   objecttolerance="10"
   gridtolerance="10"
   guidetolerance="10"
   inkscape:pageopacity="0"
   inkscape:pageshadow="2"
   inkscape:window-width="6400"
   inkscape:window-height="3544"
   id="namedview943"
   showgrid="false"
   inkscape:pagecheckerboard="true"
   fit-margin-top="0"
   fit-margin-left="0"
   fit-margin-right="0"
   fit-margin-bottom="0"
   inkscape:zoom="12.959092"
   inkscape:cx="46.442072"
   inkscape:cy="71.620038"
   inkscape:window-x="-16"
   inkscape:window-y="1002"
   inkscape:window-maximized="1"
   inkscape:current-layer="Layer_1" />
<style
   type="text/css"
   id="style882">
	.st0{fill:#FFFFFF;}
</style>
<g
   id="g940"
   transform="translate(-31.101782,-0.11761368)">
	<path
   class="st0"
   d="M 119.15,70.3"
   id="path884"
   inkscape:connector-curvature="0"
   style="fill:#ffffff" />
	<path
   class="st0"
   d="M 158,31.18"
   id="path886"
   inkscape:connector-curvature="0"
   style="fill:#ffffff" />
	<path
   class="st0"
   d="m 251.35,72.53 c 0,-1.46 1.11,-2.63 2.63,-2.63 1.46,0 2.63,1.17 2.63,2.63 0,1.46 -1.17,2.63 -2.63,2.63 -1.52,0 -2.63,-1.17 -2.63,-2.63 z"
   id="path888"
   inkscape:connector-curvature="0"
   style="fill:#ffffff" />
	<path
   class="st0"
   d="m 309.39,34.16 c 0,-1.38 1.18,-2.57 2.63,-2.57 1.45,0 2.63,1.18 2.63,2.57 0,1.45 -1.18,2.63 -2.63,2.63 -1.45,0 -2.63,-1.18 -2.63,-2.63 z"
   id="path890"
   inkscape:connector-curvature="0"
   style="fill:#ffffff" />
	<path
   class="st0"
   d="m 96.27,42.77 v 1.5 h 9 v 3.02 h -9 V 74.48 H 93.19 V 47.3 h -5.2 v -3.02 h 5.2 v -1.5 c 0,-7.43 4.17,-11.72 12.09,-11.12 v 2.9 c -6.17,-0.49 -9.01,2.35 -9.01,8.21 z"
   id="path892"
   inkscape:connector-curvature="0"
   style="fill:#ffffff" />
	<path
   class="st0"
   d="m 140.91,59.5 c 0,0.48 -0.06,0.97 -0.06,1.45 h -27.38 c 0.72,6.83 5.92,11.3 12.81,11.3 4.95,0 8.7,-2.3 10.45,-5.5 l 2.66,1.57 c -2.48,4.11 -7.19,6.83 -13.18,6.83 -9.31,0 -15.89,-6.65 -15.89,-15.77 0,-8.88 6.41,-15.77 15.65,-15.77 9.2,0 14.94,7.61 14.94,15.89 z m -27.43,-1.51 h 24.29 c -0.66,-7.37 -5.86,-11.48 -11.79,-11.48 -6.88,0 -11.9,4.78 -12.5,11.48 z"
   id="path894"
   inkscape:connector-curvature="0"
   style="fill:#ffffff" />
	<path
   class="st0"
   d="m 158,47.3 v 19.91 c 0,5.32 2.84,5.44 9,4.9 v 2.72 c -7.92,1.21 -12.09,-0.72 -12.09,-7.61 V 47.3 h -6.65 v -3.02 h 6.65 V 34.71 L 158,31.6 v 12.68 h 9 v 3.02 z"
   id="path896"
   inkscape:connector-curvature="0"
   style="fill:#ffffff" />
	<path
   class="st0"
   d="m 174.84,59.38 c 0,-8.94 6.77,-15.77 15.89,-15.77 5.92,0 11,3.02 13.18,7.74 l -2.48,1.45 c -1.75,-3.81 -5.86,-6.29 -10.7,-6.29 -7.31,0 -12.81,5.68 -12.81,12.87 0,7.19 5.5,12.87 12.81,12.87 4.9,0 8.88,-2.54 10.88,-6.29 l 2.54,1.51 c -2.42,4.65 -7.49,7.67 -13.42,7.67 -9.12,0.02 -15.89,-6.81 -15.89,-15.76 z"
   id="path898"
   inkscape:connector-curvature="0"
   style="fill:#ffffff" />
	<path
   class="st0"
   d="m 240.81,55.7 v 18.79 h -3.08 V 55.7 c 0,-5.56 -3.2,-9.19 -8.88,-9.19 -5.92,0 -10.58,3.87 -10.58,12.03 v 15.95 h -3.02 V 34.71 l 3.02,-3.11 v 18.42 c 2.3,-4.47 6.16,-6.41 10.82,-6.41 7.19,0 11.72,4.77 11.72,12.09 z"
   id="path900"
   inkscape:connector-curvature="0"
   style="fill:#ffffff" />
	<path
   class="st0"
   d="M 296.75,44.28 V 74.5 h -3.08 v -6.83 c -2.54,4.53 -7.19,7.49 -12.99,7.49 -8.58,0 -15.65,-6.83 -15.65,-15.77 0,-8.94 7.07,-15.77 15.65,-15.77 5.8,0 10.46,2.96 12.99,7.49 v -6.83 z m -3.09,15.1 c 0,-7.19 -5.56,-12.87 -12.75,-12.87 -7.19,0 -12.81,5.68 -12.81,12.87 0,7.19 5.62,12.87 12.81,12.87 7.19,0.01 12.75,-5.68 12.75,-12.87 z"
   id="path902"
   inkscape:connector-curvature="0"
   style="fill:#ffffff" />
	<rect
   x="310.5"
   y="44.279999"
   class="st0"
   width="3.02"
   height="30.219999"
   id="rect904"
   style="fill:#ffffff" />
	<g
   id="g938">
		<rect
   x="31.18"
   y="31.6"
   class="st0"
   width="5.1999998"
   height="5.1999998"
   id="rect906"
   style="fill:#ffffff" />
		<rect
   x="44.18"
   y="31.6"
   class="st0"
   width="5.1999998"
   height="5.1999998"
   id="rect908"
   style="fill:#ffffff" />
		<rect
   x="57.18"
   y="31.6"
   class="st0"
   width="5.1999998"
   height="5.1999998"
   id="rect910"
   style="fill:#ffffff" />
		<rect
   x="31.18"
   y="44.599998"
   class="st0"
   width="5.1999998"
   height="5.1999998"
   id="rect912"
   style="fill:#ffffff" />
		<rect
   x="44.18"
   y="44.599998"
   class="st0"
   width="5.1999998"
   height="5.1999998"
   id="rect914"
   style="fill:#ffffff" />
		<rect
   x="31.18"
   y="57.59"
   class="st0"
   width="5.1999998"
   height="5.1999998"
   id="rect916"
   style="fill:#ffffff" />
		<circle
   class="st0"
   cx="72.779999"
   cy="34.200001"
   r="1.3"
   id="circle918"
   style="fill:#ffffff" />
		<circle
   class="st0"
   cx="72.779999"
   cy="47.200001"
   r="1.3"
   id="circle920"
   style="fill:#ffffff" />
		<circle
   class="st0"
   cx="72.779999"
   cy="60.189999"
   r="1.3"
   id="circle922"
   style="fill:#ffffff" />
		<circle
   class="st0"
   cx="72.779999"
   cy="73.190002"
   r="1.3"
   id="circle924"
   style="fill:#ffffff" />
		<circle
   class="st0"
   cx="59.779999"
   cy="47.200001"
   r="1.3"
   id="circle926"
   style="fill:#ffffff" />
		<circle
   class="st0"
   cx="59.779999"
   cy="60.189999"
   r="1.3"
   id="circle928"
   style="fill:#ffffff" />
		<circle
   class="st0"
   cx="59.779999"
   cy="73.190002"
   r="1.3"
   id="circle930"
   style="fill:#ffffff" />
		<circle
   class="st0"
   cx="46.779999"
   cy="60.189999"
   r="1.3"
   id="circle932"
   style="fill:#ffffff" />
		<circle
   class="st0"
   cx="46.779999"
   cy="73.190002"
   r="1.3"
   id="circle934"
   style="fill:#ffffff" />
		<circle
   class="st0"
   cx="33.779999"
   cy="73.190002"
   r="1.3"
   id="circle936"
   style="fill:#ffffff" />
	</g>
</g>
</svg>