<?xml version="1.0" encoding="UTF-8" standalone="no"?><svg xmlns="http://www.w3.org/2000/svg" xmlns:xlink="http://www.w3.org/1999/xlink" contentStyleType="text/css" height="365px" preserveAspectRatio="none" style="width:311px;height:365px;background:#FFFFFF;" version="1.1" viewBox="0 0 311 365" width="311px" zoomAndPan="magnify"><defs/><g><!--MD5=[f7217341b3bb6bbf768c7f0e049f8d09]
cluster Legend--><g id="cluster_Legend"><path d="M8.5,6.602 L60.5,6.602 A3.75,3.75 0 0 1 63,9.102 L70,31.6699 L301.5,31.6699 A2.5,2.5 0 0 1 304,34.1699 L304,356.102 A2.5,2.5 0 0 1 301.5,358.602 L8.5,358.602 A2.5,2.5 0 0 1 6,356.102 L6,9.102 A2.5,2.5 0 0 1 8.5,6.602 " style="stroke:#000000;stroke-width:1.5;fill:none;"/><line style="stroke:#000000;stroke-width:1.5;fill:none;" x1="6" x2="70" y1="31.6699" y2="31.6699"/><text fill="#000000" font-family="sans-serif" font-size="14" font-weight="bold" lengthAdjust="spacing" textLength="51" x="10" y="23.5679">Legend</text></g><!--MD5=[84dda40acb3410cad7262261daba2aaf]
cluster c1--><g id="cluster_c1"><rect height="134.5" rx="2.5" ry="2.5" style="stroke:#181818;stroke-width:1.0;fill:none;" width="211" x="69" y="200.102"/><rect height="10" style="stroke:#181818;stroke-width:1.0;fill:none;" width="15" x="260" y="205.102"/><rect height="2" style="stroke:#181818;stroke-width:1.0;fill:none;" width="4" x="258" y="207.102"/><rect height="2" style="stroke:#181818;stroke-width:1.0;fill:none;" width="4" x="258" y="211.102"/><text fill="#000000" font-family="sans-serif" font-size="14" font-weight="bold" lengthAdjust="spacing" textLength="185" x="82" y="228.0679">UML component with port</text></g><!--MD5=[3d2111c8a0a2d14b8769ddc11704380e]
entity c2--><g id="elem_c2"><rect fill="#F1F1F1" height="49.0679" rx="2.5" ry="2.5" style="stroke:#181818;stroke-width:0.5;" width="150" x="62" y="44.602"/><rect fill="#F1F1F1" height="10" style="stroke:#181818;stroke-width:0.5;" width="15" x="192" y="49.602"/><rect fill="#F1F1F1" height="2" style="stroke:#181818;stroke-width:0.5;" width="4" x="190" y="51.602"/><rect fill="#F1F1F1" height="2" style="stroke:#181818;stroke-width:0.5;" width="4" x="190" y="55.602"/><text fill="#000000" font-family="sans-serif" font-size="14" lengthAdjust="spacing" textLength="110" x="77" y="79.5679">UML component</text></g><text fill="#000000" font-family="sans-serif" font-size="14" lengthAdjust="spacing" textLength="28" x="87" y="178">port</text><rect fill="#181818" height="12" style="stroke:#F1F1F1;stroke-width:1.5;" width="12" x="81" y="194.102"/><!--MD5=[c7ea48a60e67f64fd73870c8f0f50f57]
reverse link c2 to c1--><g id="link_c2_c1"><path d="M165.13,97.922 C171.2,105.622 176.76,114.402 180,123.602 C189.96,151.902 194.095,171.2345 193.6725,190.7007 C193.6197,193.134 193.4957,195.5694 193.3029,198.0246 C193.2547,198.6384 193.2022,199.2535 193.1455,199.8701 " fill="none" id="c2-backto-c1" style="stroke:#181818;stroke-width:1.0;"/><polygon fill="#181818" points="161.72,93.762,164.329,103.259,164.8885,97.6299,170.5176,98.1893,161.72,93.762" style="stroke:#181818;stroke-width:1.0;"/><text fill="#000000" font-family="sans-serif" font-size="13" lengthAdjust="spacing" textLength="93" x="194" y="187.499">Uses in-process</text><text fill="#000000" font-family="sans-serif" font-size="13" lengthAdjust="spacing" textLength="3" x="239" y="205.205"> </text><text fill="#000000" font-family="sans-serif" font-size="13" lengthAdjust="spacing" textLength="3" x="239" y="222.911"> </text></g><!--MD5=[447cd2df6daf994c6a16773a8c71464a]
reverse link c2 to p1--><g id="link_c2_p1"><path d="M85.54,96.712 C76.06,104.082 67.45,113.022 62,123.602 C49.23,148.402 72.18,181.072 82.43,193.752 " fill="none" id="c2-backto-p1" style="stroke:#181818;stroke-width:1.0;stroke-dasharray:7.0,7.0;"/><polygon fill="#181818" points="89.65,93.642,80.0413,95.8036,85.638,96.626,84.8157,102.2227,89.65,93.642" style="stroke:#181818;stroke-width:1.0;"/><text fill="#000000" font-family="sans-serif" font-size="13" lengthAdjust="spacing" textLength="112" x="63" y="138.499">Uses over network</text></g><!--MD5=[ab48233a7308574b521a6800b38b2936]
@startuml
package Legend {
    component "UML component" as c2

    component "UML component with port" as c1 {
        port "        port " as p1
    }


    c2 <- - c1 : "Uses in-process\n\n"
    c2 <.. p1 : "Uses over network"
}
@enduml

PlantUML version 1.2022.6(Tue Jun 21 19:34:49 CEST 2022)
(GPL source distribution)
Java Runtime: OpenJDK Runtime Environment
JVM: OpenJDK 64-Bit Server VM
Default Encoding: UTF-8
Language: en
Country: US
--></g></svg>