<?xml version="1.0" encoding="UTF-8" standalone="no"?><svg xmlns="http://www.w3.org/2000/svg" xmlns:xlink="http://www.w3.org/1999/xlink" contentStyleType="text/css" height="871px" preserveAspectRatio="none" style="width:418px;height:871px;background:#FFFFFF;" version="1.1" viewBox="0 0 418 871" width="418px" zoomAndPan="magnify"><defs/><g><!--MD5=[68a0c021ad4fbab63794e91c3c368f48]
class Block--><g id="elem_Block"><rect codeLine="1" fill="#F1F1F1" height="196.5433" id="Block" rx="2.5" ry="2.5" style="stroke:#181818;stroke-width:0.5;" width="98" x="153" y="668"/><ellipse cx="181.95" cy="684" fill="#ADD1B2" rx="11" ry="11" style="stroke:#181818;stroke-width:1.0;"/><path d="M178.3094,690.5 L178.3094,677.5 L185.9656,677.5 L185.9656,679.75 L180.6844,679.75 L180.6844,682.5 L185.7,682.5 L185.7,684.75 L180.6844,684.75 L180.6844,688.25 L185.9656,688.25 L185.9656,690.5 L178.3094,690.5 Z " fill="#000000"/><text fill="#000000" font-family="sans-serif" font-size="14" lengthAdjust="spacing" textLength="35" x="199.05" y="689.432">Block</text><line style="stroke:#181818;stroke-width:0.5;" x1="154" x2="250" y1="700" y2="700"/><ellipse cx="164" cy="711" fill="none" rx="3" ry="3" style="stroke:#038048;stroke-width:1.0;"/><text fill="#000000" font-family="sans-serif" font-size="14" lengthAdjust="spacing" textLength="13" x="173" y="718.9659">id</text><ellipse cx="164" cy="730.0679" fill="none" rx="3" ry="3" style="stroke:#038048;stroke-width:1.0;"/><text fill="#000000" font-family="sans-serif" font-size="14" lengthAdjust="spacing" textLength="51" x="173" y="738.0339">chainId</text><ellipse cx="164" cy="749.1358" fill="none" rx="3" ry="3" style="stroke:#038048;stroke-width:1.0;"/><text fill="#000000" font-family="sans-serif" font-size="14" lengthAdjust="spacing" textLength="44" x="173" y="757.1018">height</text><text fill="#000000" font-family="sans-serif" font-size="14" lengthAdjust="spacing" textLength="72" x="173" y="776.1697">timestamp</text><text fill="#000000" font-family="sans-serif" font-size="14" lengthAdjust="spacing" textLength="83" x="159" y="818.3055">transactions</text><text fill="#000000" font-family="sans-serif" font-size="14" lengthAdjust="spacing" textLength="67" x="159" y="837.3734">messages</text><text fill="#000000" font-family="sans-serif" font-size="14" lengthAdjust="spacing" textLength="44" x="159" y="856.4414">events</text><line style="stroke:#181818;stroke-width:1.0;stroke-dasharray:1.0,2.0;" x1="154" x2="172.5" y1="793.8056" y2="793.8056"/><text fill="#000000" font-family="sans-serif" font-size="14" lengthAdjust="spacing" textLength="59" x="172.5" y="798.7376">relations</text><line style="stroke:#181818;stroke-width:1.0;stroke-dasharray:1.0,2.0;" x1="231.5" x2="250" y1="793.8056" y2="793.8056"/></g><!--MD5=[4555bb1b0911a5adf28ce6dbe60fed2e]
class Transaction--><g id="elem_Transaction"><rect codeLine="12" fill="#F1F1F1" height="291.8829" id="Transaction" rx="2.5" ry="2.5" style="stroke:#181818;stroke-width:0.5;" width="124" x="150" y="252"/><ellipse cx="170.85" cy="268" fill="#ADD1B2" rx="11" ry="11" style="stroke:#181818;stroke-width:1.0;"/><path d="M167.2094,274.5 L167.2094,261.5 L174.8656,261.5 L174.8656,263.75 L169.5844,263.75 L169.5844,266.5 L174.6,266.5 L174.6,268.75 L169.5844,268.75 L169.5844,272.25 L174.8656,272.25 L174.8656,274.5 L167.2094,274.5 Z " fill="#000000"/><text fill="#000000" font-family="sans-serif" font-size="14" lengthAdjust="spacing" textLength="79" x="186.15" y="273.432">Transaction</text><line style="stroke:#181818;stroke-width:0.5;" x1="151" x2="273" y1="284" y2="284"/><ellipse cx="161" cy="295" fill="none" rx="3" ry="3" style="stroke:#038048;stroke-width:1.0;"/><text fill="#000000" font-family="sans-serif" font-size="14" lengthAdjust="spacing" textLength="13" x="170" y="302.9659">id</text><text fill="#000000" font-family="sans-serif" font-size="14" lengthAdjust="spacing" textLength="58" x="170" y="322.0339">gasUsed</text><text fill="#000000" font-family="sans-serif" font-size="14" lengthAdjust="spacing" textLength="76" x="170" y="341.1018">gasWanted</text><text fill="#000000" font-family="sans-serif" font-size="14" lengthAdjust="spacing" textLength="28" x="170" y="360.1697">fees</text><text fill="#000000" font-family="sans-serif" font-size="14" lengthAdjust="spacing" textLength="42" x="170" y="379.2376">memo</text><text fill="#000000" font-family="sans-serif" font-size="14" lengthAdjust="spacing" textLength="41" x="170" y="398.3055">status</text><text fill="#000000" font-family="sans-serif" font-size="14" lengthAdjust="spacing" textLength="21" x="170" y="417.3734">log</text><ellipse cx="161" cy="428.4754" fill="none" rx="3" ry="3" style="stroke:#038048;stroke-width:1.0;"/><text fill="#000000" font-family="sans-serif" font-size="14" lengthAdjust="spacing" textLength="97" x="170" y="436.4414">timeoutHeight</text><ellipse cx="161" cy="447.5433" fill="none" rx="3" ry="3" style="stroke:#038048;stroke-width:1.0;"/><text fill="#000000" font-family="sans-serif" font-size="14" lengthAdjust="spacing" textLength="98" x="170" y="455.5093">signerAddress</text><text fill="#000000" font-family="sans-serif" font-size="14" lengthAdjust="spacing" textLength="35" x="156" y="497.6451">block</text><text fill="#000000" font-family="sans-serif" font-size="14" lengthAdjust="spacing" textLength="67" x="156" y="516.713">messages</text><text fill="#000000" font-family="sans-serif" font-size="14" lengthAdjust="spacing" textLength="44" x="156" y="535.7809">events</text><line style="stroke:#181818;stroke-width:1.0;stroke-dasharray:1.0,2.0;" x1="151" x2="182.5" y1="473.1452" y2="473.1452"/><text fill="#000000" font-family="sans-serif" font-size="14" lengthAdjust="spacing" textLength="59" x="182.5" y="478.0772">relations</text><line style="stroke:#181818;stroke-width:1.0;stroke-dasharray:1.0,2.0;" x1="241.5" x2="273" y1="473.1452" y2="473.1452"/></g><!--MD5=[bea5b0d46523efab5ea1c1d339f396f0]
class Message--><g id="elem_Message"><rect codeLine="31" fill="#F1F1F1" height="177.4754" id="Message" rx="2.5" ry="2.5" style="stroke:#181818;stroke-width:0.5;" width="92" x="7" y="309"/><ellipse cx="22" cy="325" fill="#ADD1B2" rx="11" ry="11" style="stroke:#181818;stroke-width:1.0;"/><path d="M18.3594,331.5 L18.3594,318.5 L26.0156,318.5 L26.0156,320.75 L20.7344,320.75 L20.7344,323.5 L25.75,323.5 L25.75,325.75 L20.7344,325.75 L20.7344,329.25 L26.0156,329.25 L26.0156,331.5 L18.3594,331.5 Z " fill="#000000"/><text fill="#000000" font-family="sans-serif" font-size="14" lengthAdjust="spacing" textLength="60" x="36" y="330.432">Message</text><line style="stroke:#181818;stroke-width:0.5;" x1="8" x2="98" y1="341" y2="341"/><ellipse cx="18" cy="352" fill="none" rx="3" ry="3" style="stroke:#038048;stroke-width:1.0;"/><text fill="#000000" font-family="sans-serif" font-size="14" lengthAdjust="spacing" textLength="13" x="27" y="359.9659">id</text><ellipse cx="18" cy="371.0679" fill="none" rx="3" ry="3" style="stroke:#038048;stroke-width:1.0;"/><text fill="#000000" font-family="sans-serif" font-size="14" lengthAdjust="spacing" textLength="49" x="27" y="379.0339">typeUrl</text><text fill="#000000" font-family="sans-serif" font-size="14" lengthAdjust="spacing" textLength="28" x="27" y="398.1018">json</text><text fill="#000000" font-family="sans-serif" font-size="14" lengthAdjust="spacing" textLength="76" x="13" y="440.2376">transaction</text><text fill="#000000" font-family="sans-serif" font-size="14" lengthAdjust="spacing" textLength="35" x="13" y="459.3055">block</text><text fill="#000000" font-family="sans-serif" font-size="14" lengthAdjust="spacing" textLength="4" x="13" y="478.3734"> </text><line style="stroke:#181818;stroke-width:1.0;stroke-dasharray:1.0,2.0;" x1="8" x2="23.5" y1="415.7377" y2="415.7377"/><text fill="#000000" font-family="sans-serif" font-size="14" lengthAdjust="spacing" textLength="59" x="23.5" y="420.6697">relations</text><line style="stroke:#181818;stroke-width:1.0;stroke-dasharray:1.0,2.0;" x1="82.5" x2="98" y1="415.7377" y2="415.7377"/></g><!--MD5=[ac13618b1a974308c1f12eb6c57723dc]
class Event--><g id="elem_Event"><rect codeLine="48" fill="#F1F1F1" height="177.4754" id="Event" rx="2.5" ry="2.5" style="stroke:#181818;stroke-width:0.5;" width="92" x="166" y="7"/><ellipse cx="191.35" cy="23" fill="#ADD1B2" rx="11" ry="11" style="stroke:#181818;stroke-width:1.0;"/><path d="M187.7094,29.5 L187.7094,16.5 L195.3656,16.5 L195.3656,18.75 L190.0844,18.75 L190.0844,21.5 L195.1,21.5 L195.1,23.75 L190.0844,23.75 L190.0844,27.25 L195.3656,27.25 L195.3656,29.5 L187.7094,29.5 Z " fill="#000000"/><text fill="#000000" font-family="sans-serif" font-size="14" lengthAdjust="spacing" textLength="37" x="207.65" y="28.432">Event</text><line style="stroke:#181818;stroke-width:0.5;" x1="167" x2="257" y1="39" y2="39"/><ellipse cx="177" cy="50" fill="none" rx="3" ry="3" style="stroke:#038048;stroke-width:1.0;"/><text fill="#000000" font-family="sans-serif" font-size="14" lengthAdjust="spacing" textLength="13" x="186" y="57.9659">id</text><ellipse cx="177" cy="69.0679" fill="none" rx="3" ry="3" style="stroke:#038048;stroke-width:1.0;"/><text fill="#000000" font-family="sans-serif" font-size="14" lengthAdjust="spacing" textLength="29" x="186" y="77.0339">type</text><text fill="#000000" font-family="sans-serif" font-size="14" lengthAdjust="spacing" textLength="66" x="186" y="96.1018">attributes</text><text fill="#000000" font-family="sans-serif" font-size="14" lengthAdjust="spacing" textLength="21" x="186" y="115.1697">log</text><text fill="#000000" font-family="sans-serif" font-size="14" lengthAdjust="spacing" textLength="35" x="172" y="157.3055">block</text><text fill="#000000" font-family="sans-serif" font-size="14" lengthAdjust="spacing" textLength="76" x="172" y="176.3734">transaction</text><line style="stroke:#181818;stroke-width:1.0;stroke-dasharray:1.0,2.0;" x1="167" x2="182.5" y1="132.8056" y2="132.8056"/><text fill="#000000" font-family="sans-serif" font-size="14" lengthAdjust="spacing" textLength="59" x="182.5" y="137.7376">relations</text><line style="stroke:#181818;stroke-width:1.0;stroke-dasharray:1.0,2.0;" x1="241.5" x2="257" y1="132.8056" y2="132.8056"/></g><g id="elem_EventAttribute"><rect fill="#F1F1F1" height="69.2038" style="stroke:#181818;stroke-width:0.5;" width="111" x="301.5" y="61"/><text fill="#000000" font-family="sans-serif" font-size="14" lengthAdjust="spacing" textLength="97" x="308.5" y="77.9659">EventAttribute</text><line style="stroke:#181818;stroke-width:0.5;" x1="302.5" x2="411.5" y1="84.0679" y2="84.0679"/><text fill="#000000" font-family="sans-serif" font-size="14" lengthAdjust="spacing" textLength="22" x="307.5" y="103.0339">key</text><text fill="#000000" font-family="sans-serif" font-size="14" lengthAdjust="spacing" textLength="36" x="307.5" y="122.1018">value</text></g><!--MD5=[a3398fa1b5c2c803182fc58de52a450f]
link Transaction to Block--><g id="link_Transaction_Block"><path codeLine="28" d="M207.73,555.37 C206.77,590.58 205.77,627.12 204.88,659.67 " fill="none" id="Transaction-Block" style="stroke:#181818;stroke-width:1.0;"/><line style="stroke:#181818;stroke-width:1.0;" x1="208.7657" x2="200.7685" y1="663.9685" y2="663.7543"/><line style="stroke:#181818;stroke-width:1.0;" x1="208.846" x2="200.8489" y1="660.9696" y2="660.7554"/><line style="stroke:#181818;stroke-width:1.0;" x1="204.8742" x2="204.66" y1="659.8629" y2="667.86"/><line style="stroke:#181818;stroke-width:1.0;" x1="207.7215" x2="201.9524" y1="555.2367" y2="547.0686"/><line style="stroke:#181818;stroke-width:1.0;" x1="207.7215" x2="213.9476" y1="555.2367" y2="547.4114"/><line style="stroke:#181818;stroke-width:1.0;" x1="207.7215" x2="207.95" y1="555.2367" y2="547.24"/><line style="stroke:#181818;stroke-width:1.0;" x1="203.666" x2="211.6628" y1="557.1217" y2="557.3502"/></g><!--MD5=[a3398fa1b5c2c803182fc58de52a450f]
link Transaction to Block--><g id="link_Transaction_Block"><path codeLine="29" d="M275,492.5 C311.39,492.5 281.1,584.15 249.19,661.25 " fill="none" id="Transaction-to-Block" style="stroke:#181818;stroke-width:1.0;stroke-dasharray:7.0,7.0;"/><line style="stroke:#181818;stroke-width:1.0;" x1="251.7177" x2="244.3288" y1="665.5488" y2="662.4823"/><line style="stroke:#181818;stroke-width:1.0;" x1="252.8677" x2="245.4787" y1="662.7779" y2="659.7114"/><line style="stroke:#181818;stroke-width:1.0;" x1="249.5565" x2="246.49" y1="660.321" y2="667.71"/></g><!--MD5=[c098d0eca0d8b3e7778ad03720f2afa0]
link Transaction to Message--><g id="link_Transaction_Message"><path codeLine="41" d="M149,511.5 C134.14,511.5 121.15,505.71 109.95,496.74 " fill="none" id="Transaction-to-Message" style="stroke:#181818;stroke-width:1.0;stroke-dasharray:7.0,7.0;"/><line style="stroke:#181818;stroke-width:1.0;" x1="108.439" x2="98.4752" y1="495.3864" y2="494.5368"/><line style="stroke:#181818;stroke-width:1.0;" x1="108.439" x2="106.4648" y1="495.3864" y2="485.5832"/><line style="stroke:#181818;stroke-width:1.0;" x1="108.439" x2="102.47" y1="495.3864" y2="490.06"/><line style="stroke:#181818;stroke-width:1.0;" x1="107.2681" x2="112.5945" y1="499.7025" y2="493.7335"/></g><!--MD5=[c098d0eca0d8b3e7778ad03720f2afa0]
link Transaction to Message--><g id="link_Transaction_Message"><path codeLine="44" d="M131.39,397.5 C126.64,397.5 121.9,397.5 117.23,397.5 " fill="none" id="Transaction-Message" style="stroke:#181818;stroke-width:1.0;"/><line style="stroke:#181818;stroke-width:1.0;" x1="115.15" x2="107.15" y1="397.5" y2="403.5"/><line style="stroke:#181818;stroke-width:1.0;" x1="115.15" x2="107.15" y1="397.5" y2="391.5"/><line style="stroke:#181818;stroke-width:1.0;" x1="115.15" x2="107.15" y1="397.5" y2="397.5"/><line style="stroke:#181818;stroke-width:1.0;" x1="117.15" x2="117.15" y1="401.5" y2="393.5"/><line style="stroke:#181818;stroke-width:1.0;" x1="137.76" x2="137.76" y1="393.5" y2="401.5"/><line style="stroke:#181818;stroke-width:1.0;" x1="134.76" x2="134.76" y1="393.5" y2="401.5"/><line style="stroke:#181818;stroke-width:1.0;" x1="133.76" x2="141.76" y1="397.5" y2="397.5"/></g><!--MD5=[f06a6e9817b35517feb8d73e2310c73e]
link Message to Transaction--><g id="link_Message_Transaction"><path codeLine="46" d="M100,435.5 C110.5,435.5 121.26,433.96 131.77,431.5 " fill="none" id="Message-to-Transaction" style="stroke:#181818;stroke-width:1.0;stroke-dasharray:7.0,7.0;"/><line style="stroke:#181818;stroke-width:1.0;" x1="136.8522" x2="138.8922" y1="426.0322" y2="433.7678"/><line style="stroke:#181818;stroke-width:1.0;" x1="133.9514" x2="135.9914" y1="426.7972" y2="434.5327"/><line style="stroke:#181818;stroke-width:1.0;" x1="134.0045" x2="141.74" y1="430.92" y2="428.88"/></g><!--MD5=[1ab016f66a6d229c85b379804917b16b]
link Message to Block--><g id="link_Message_Block"><path codeLine="45" d="M100,454.5 C142.47,454.5 111.51,506.4 124,547 C135.56,584.6 149.66,625.32 162.67,661.3 " fill="none" id="Message-to-Block" style="stroke:#181818;stroke-width:1.0;stroke-dasharray:7.0,7.0;"/><line style="stroke:#181818;stroke-width:1.0;" x1="167.4785" x2="159.9568" y1="662.8368" y2="665.5615"/><line style="stroke:#181818;stroke-width:1.0;" x1="166.4567" x2="158.935" y1="660.0161" y2="662.7409"/><line style="stroke:#181818;stroke-width:1.0;" x1="162.3552" x2="165.08" y1="660.4383" y2="667.96"/></g><!--MD5=[da0582324838b8bff12f95251c5ee9d9]
link Event to EventAttribute--><g id="link_Event_EventAttribute"><path codeLine="63" d="M259,90.5 C269.52,94.64 280.68,98.07 291.53,100.65 " fill="none" id="Event-to-EventAttribute" style="stroke:#181818;stroke-width:1.0;"/><line style="stroke:#181818;stroke-width:1.0;" x1="293.5699" x2="302.6552" y1="101.073" y2="96.8949"/><line style="stroke:#181818;stroke-width:1.0;" x1="293.5699" x2="300.1248" y1="101.073" y2="108.6251"/><line style="stroke:#181818;stroke-width:1.0;" x1="293.5699" x2="301.39" y1="101.073" y2="102.76"/><line style="stroke:#181818;stroke-width:1.0;" x1="292.4583" x2="290.7714" y1="96.7412" y2="104.5613"/></g><!--MD5=[713d2e09b8905f308d86bd6658fe52f3]
link Event to Transaction--><g id="link_Event_Transaction"><path codeLine="65" d="M212,196.22 C212,210.24 212,224.93 212,239.7 " fill="none" id="Event-Transaction" style="stroke:#181818;stroke-width:1.0;"/><line style="stroke:#181818;stroke-width:1.0;" x1="216" x2="208" y1="243.91" y2="243.91"/><line style="stroke:#181818;stroke-width:1.0;" x1="216" x2="208" y1="240.91" y2="240.91"/><line style="stroke:#181818;stroke-width:1.0;" x1="212" x2="212" y1="239.91" y2="247.91"/><line style="stroke:#181818;stroke-width:1.0;" x1="212" x2="206" y1="196.14" y2="188.14"/><line style="stroke:#181818;stroke-width:1.0;" x1="212" x2="218" y1="196.14" y2="188.14"/><line style="stroke:#181818;stroke-width:1.0;" x1="212" x2="212" y1="196.14" y2="188.14"/><line style="stroke:#181818;stroke-width:1.0;" x1="208" x2="216" y1="198.14" y2="198.14"/></g><!--MD5=[713d2e09b8905f308d86bd6658fe52f3]
link Event to Transaction--><g id="link_Event_Transaction"><path codeLine="66" d="M259,171.5 C277.91,171.5 276.38,202.33 266.95,241.17 " fill="none" id="Event-to-Transaction" style="stroke:#181818;stroke-width:1.0;stroke-dasharray:7.0,7.0;"/><line style="stroke:#181818;stroke-width:1.0;" x1="270.0865" x2="262.3292" y1="245.0892" y2="243.1335"/><line style="stroke:#181818;stroke-width:1.0;" x1="270.8198" x2="263.0625" y1="242.1802" y2="240.2246"/><line style="stroke:#181818;stroke-width:1.0;" x1="267.1856" x2="265.23" y1="240.2327" y2="247.99"/></g><!--MD5=[9fa77b6e1afd0588ebcbb5c7bfd4579e]
link Event to Block--><g id="link_Event_Block"><path codeLine="67" d="M259,152.5 C270.55,152.5 297.67,236.69 300,248 C332.22,404.74 343.45,455.49 295,608 C285.79,637 270.44,666.35 254.85,691.74 " fill="none" id="Event-to-Block" style="stroke:#181818;stroke-width:1.0;stroke-dasharray:7.0,7.0;"/><line style="stroke:#181818;stroke-width:1.0;" x1="256.6012" x2="249.8144" y1="696.4844" y2="692.2488"/><line style="stroke:#181818;stroke-width:1.0;" x1="258.1895" x2="251.4028" y1="693.9394" y2="689.7038"/><line style="stroke:#181818;stroke-width:1.0;" x1="255.3256" x2="251.09" y1="690.9733" y2="697.76"/></g><!--MD5=[e049778bfcfc77353f5b3abfac8a8002]
@startuml
entity Block {
  +id
  +chainId
  +height
  timestamp
  ..relations..
  transactions
  messages
  events
}

entity Transaction {
  +id
  gasUsed
  gasWanted
  fees
  memo
  status
  log
  +timeoutHeight
  +signerAddress
  ..relations..
  block
  messages
  events
}

Transaction }|- -|| Block
Transaction::block ...|| Block

entity Message {
  +id
  +typeUrl
  json
  ..relations..
  transaction
  block

}

Transaction::messages ..|{ Message

'Message }|- -|| Transaction
Transaction ||- -|{ Message
Message::block ..|| Block
Message::transaction .|| Transaction

entity Event {
  +id
  +type
  attributes
  log
  ..relations..
  block
  transaction
}

object EventAttribute {
  key
  value
}

Event::attributes -|{ EventAttribute

Event }|- -|| Transaction
Event::transaction ..|| Transaction
Event::block ..|| Block
'Event }|- -|| Block
@enduml

@startuml
entity Block {
  +id
  +chainId
  +height
  timestamp
  ..relations..
  transactions
  messages
  events
}

entity Transaction {
  +id
  gasUsed
  gasWanted
  fees
  memo
  status
  log
  +timeoutHeight
  +signerAddress
  ..relations..
  block
  messages
  events
}

Transaction }|- -|| Block
Transaction::block ...|| Block

entity Message {
  +id
  +typeUrl
  json
  ..relations..
  transaction
  block

}

Transaction::messages ..|{ Message

Transaction ||- -|{ Message
Message::block ..|| Block
Message::transaction .|| Transaction

entity Event {
  +id
  +type
  attributes
  log
  ..relations..
  block
  transaction
}

object EventAttribute {
  key
  value
}

Event::attributes -|{ EventAttribute

Event }|- -|| Transaction
Event::transaction ..|| Transaction
Event::block ..|| Block
@enduml

PlantUML version 1.2022.6(Tue Jun 21 19:34:49 CEST 2022)
(GPL source distribution)
Java Runtime: OpenJDK Runtime Environment
JVM: OpenJDK 64-Bit Server VM
Default Encoding: UTF-8
Language: en
Country: US
--></g></svg>