<?xml version="1.0" encoding="UTF-8" standalone="no"?><svg xmlns="http://www.w3.org/2000/svg" xmlns:xlink="http://www.w3.org/1999/xlink" contentStyleType="text/css" height="307px" preserveAspectRatio="none" style="width:490px;height:307px;background:#FFFFFF;" version="1.1" viewBox="0 0 490 307" width="490px" zoomAndPan="magnify"><defs/><g><!--MD5=[86674ab5735079aa6b5321d691891463]
cluster legend--><g id="cluster_legend"><path d="M8.5,6.602 L56.5,6.602 A3.75,3.75 0 0 1 59,9.102 L66,31.6699 L480.5,31.6699 A2.5,2.5 0 0 1 483,34.1699 L483,298.102 A2.5,2.5 0 0 1 480.5,300.602 L8.5,300.602 A2.5,2.5 0 0 1 6,298.102 L6,9.102 A2.5,2.5 0 0 1 8.5,6.602 " fill="none" style="stroke:#000000;stroke-width:1.5;"/><line style="stroke:#000000;stroke-width:1.5;" x1="6" x2="66" y1="31.6699" y2="31.6699"/><text fill="#000000" font-family="sans-serif" font-size="14" font-weight="bold" lengthAdjust="spacing" textLength="47" x="10" y="23.5679">legend</text></g><!--MD5=[cf9bc73d4b319b8f5d50999aecc13d13]
class Parent--><g id="elem_Parent"><rect codeLine="2" fill="#F1F1F1" height="48" id="Parent" rx="2.5" ry="2.5" style="stroke:#181818;stroke-width:0.5;" width="76" x="22" y="63.602"/><ellipse cx="37" cy="79.602" fill="#ADD1B2" rx="11" ry="11" style="stroke:#181818;stroke-width:1.0;"/><path d="M33.3594,86.102 L33.3594,73.9614 L41.0156,73.9614 L41.0156,76.0864 L35.7344,76.0864 L35.7344,78.7426 L40.75,78.7426 L40.75,80.8676 L35.7344,80.8676 L35.7344,83.977 L41.0156,83.977 L41.0156,86.102 L33.3594,86.102 Z " fill="#000000"/><text fill="#000000" font-family="sans-serif" font-size="14" lengthAdjust="spacing" textLength="44" x="51" y="85.034">Parent</text><line style="stroke:#181818;stroke-width:0.5;" x1="23" x2="97" y1="95.602" y2="95.602"/><line style="stroke:#181818;stroke-width:0.5;" x1="23" x2="97" y1="103.602" y2="103.602"/></g><!--MD5=[661c05259cf57e4b4baa54079a4420a8]
class Child--><g id="elem_Child"><rect codeLine="3" fill="#F1F1F1" height="67.0679" id="Child" rx="2.5" ry="2.5" style="stroke:#181818;stroke-width:0.5;" width="67" x="113.5" y="213.602"/><ellipse cx="128.5" cy="229.602" fill="#ADD1B2" rx="11" ry="11" style="stroke:#181818;stroke-width:1.0;"/><path d="M124.8594,236.102 L124.8594,223.9614 L132.5156,223.9614 L132.5156,226.0864 L127.2344,226.0864 L127.2344,228.7426 L132.25,228.7426 L132.25,230.8676 L127.2344,230.8676 L127.2344,233.977 L132.5156,233.977 L132.5156,236.102 L124.8594,236.102 Z " fill="#000000"/><text fill="#000000" font-family="sans-serif" font-size="14" lengthAdjust="spacing" textLength="35" x="142.5" y="235.034">Child</text><line style="stroke:#181818;stroke-width:0.5;" x1="114.5" x2="179.5" y1="245.602" y2="245.602"/><text fill="#000000" font-family="sans-serif" font-size="14" lengthAdjust="spacing" textLength="45" x="119.5" y="264.5679">parent</text><line style="stroke:#181818;stroke-width:0.5;" x1="114.5" x2="179.5" y1="272.6699" y2="272.6699"/></g><!--MD5=[be996cdb8e6bf2fc7cb89c555f2cd144]
class Entity--><g id="elem_Entity"><rect codeLine="10" fill="#F1F1F1" height="86.1358" id="Entity" rx="2.5" ry="2.5" style="stroke:#181818;stroke-width:0.5;" width="145" x="133.5" y="44.602"/><ellipse cx="182.75" cy="60.602" fill="#ADD1B2" rx="11" ry="11" style="stroke:#181818;stroke-width:1.0;"/><path d="M179.1094,67.102 L179.1094,54.9614 L186.7656,54.9614 L186.7656,57.0864 L181.4844,57.0864 L181.4844,59.7426 L186.5,59.7426 L186.5,61.8676 L181.4844,61.8676 L181.4844,64.977 L186.7656,64.977 L186.7656,67.102 L179.1094,67.102 Z " fill="#000000"/><text fill="#000000" font-family="sans-serif" font-size="14" lengthAdjust="spacing" textLength="38" x="203.25" y="66.034">Entity</text><line style="stroke:#181818;stroke-width:0.5;" x1="134.5" x2="277.5" y1="76.602" y2="76.602"/><ellipse cx="144.5" cy="91.6359" fill="none" rx="3" ry="3" style="stroke:#038048;stroke-width:1.0;"/><text fill="#000000" font-family="sans-serif" font-size="14" lengthAdjust="spacing" textLength="88" x="153.5" y="95.5679">indexed field</text><text fill="#000000" font-family="sans-serif" font-size="14" lengthAdjust="spacing" textLength="119" x="153.5" y="114.6358">non-indexed field</text><line style="stroke:#181818;stroke-width:0.5;" x1="134.5" x2="277.5" y1="122.7378" y2="122.7378"/></g><!--MD5=[e95eab5e4529425f30cd75fab835797b]
class Other--><g id="elem_Other"><rect codeLine="15" fill="#F1F1F1" height="48" id="Other" rx="2.5" ry="2.5" style="stroke:#181818;stroke-width:0.5;" width="71" x="395.5" y="63.602"/><ellipse cx="410.5" cy="79.602" fill="#ADD1B2" rx="11" ry="11" style="stroke:#181818;stroke-width:1.0;"/><path d="M406.8594,86.102 L406.8594,73.9614 L414.5156,73.9614 L414.5156,76.0864 L409.2344,76.0864 L409.2344,78.7426 L414.25,78.7426 L414.25,80.8676 L409.2344,80.8676 L409.2344,83.977 L414.5156,83.977 L414.5156,86.102 L406.8594,86.102 Z " fill="#000000"/><text fill="#000000" font-family="sans-serif" font-size="14" lengthAdjust="spacing" textLength="39" x="424.5" y="85.034">Other</text><line style="stroke:#181818;stroke-width:0.5;" x1="396.5" x2="465.5" y1="95.602" y2="95.602"/><line style="stroke:#181818;stroke-width:0.5;" x1="396.5" x2="465.5" y1="103.602" y2="103.602"/></g><!--MD5=[983db49d2c83cabe74c751fcf84cc6b4]
link Child to Parent--><g id="link_Child_Parent"><path codeLine="7" d="M182,260.102 C266.71,260.102 216.51,194.992 193,160.602 C172.27,130.282 148.1,148.452 116,130.602 C108.83,126.612 101.55,121.812 94.71,116.902 " fill="none" id="Child-to-Parent" style="stroke:#181818;stroke-width:1.0;stroke-dasharray:7.0,7.0;"/><line style="stroke:#181818;stroke-width:1.0;" x1="90.1011" x2="94.854" y1="118.466" y2="112.0308"/><line style="stroke:#181818;stroke-width:1.0;" x1="92.5143" x2="97.2671" y1="120.2483" y2="113.8132"/><line style="stroke:#181818;stroke-width:1.0;" x1="95.6951" x2="89.26" y1="117.6248" y2="112.872"/><text fill="#000000" font-family="sans-serif" font-size="13" lengthAdjust="spacing" textLength="74" x="206" y="175.499">API accessor</text></g><!--MD5=[5d1bf43d8009b239ac9ba90ae5e3b1fb]
link Parent to Child--><g id="link_Parent_Child"><path codeLine="8" d="M48.31,121.082 C43.78,139.252 41.65,161.762 51,179.602 C61.03,198.762 79.37,213.492 97.35,224.172 " fill="none" id="Parent-Child" style="stroke:#181818;stroke-width:1.0;"/><line style="stroke:#181818;stroke-width:1.0;" x1="97.2704" x2="107.1856" y1="224.1245" y2="222.8248"/><line style="stroke:#181818;stroke-width:1.0;" x1="97.2704" x2="101.2944" y1="224.1245" y2="233.2791"/><line style="stroke:#181818;stroke-width:1.0;" x1="97.2704" x2="104.24" y1="224.1245" y2="228.052"/><line style="stroke:#181818;stroke-width:1.0;" x1="97.4918" x2="93.5643" y1="219.6578" y2="226.6274"/><line style="stroke:#181818;stroke-width:1.0;" x1="45.5106" x2="53.215" y1="116.257" y2="118.4114"/><line style="stroke:#181818;stroke-width:1.0;" x1="44.7027" x2="52.4071" y1="119.1462" y2="121.3006"/><line style="stroke:#181818;stroke-width:1.0;" x1="48.2856" x2="50.44" y1="121.1864" y2="113.482"/><text fill="#000000" font-family="sans-serif" font-size="13" lengthAdjust="spacing" textLength="123" x="61" y="175.499">Foreign Key Relation</text></g><!--MD5=[fac1c5e7ea3d749b0de4a89bb687e29c]
link Entity to Other--><g id="link_Entity_Other"><path codeLine="17" d="M278.75,67.902 C309.53,62.252 345.67,59.162 378,65.602 C381.01,66.202 384.06,66.972 387.11,67.872 " fill="none" id="Entity-to-Other" style="stroke:#181818;stroke-width:1.0;"/><line style="stroke:#181818;stroke-width:1.0;" x1="391.1074" x2="388.6118" y1="64.9838" y2="72.5846"/><line style="stroke:#181818;stroke-width:1.0;" x1="388.2571" x2="385.7615" y1="64.048" y2="71.6488"/><line style="stroke:#181818;stroke-width:1.0;" x1="386.0592" x2="393.66" y1="67.5364" y2="70.032"/><text fill="#000000" font-family="sans-serif" font-size="13" lengthAdjust="spacing" textLength="68" x="303" y="55.499">Exactly one</text></g><!--MD5=[fac1c5e7ea3d749b0de4a89bb687e29c]
link Entity to Other--><g id="link_Entity_Other"><path codeLine="18" d="M278.73,107.242 C309.23,112.812 344.98,115.872 377,109.602 C380.12,108.992 383.3,108.192 386.46,107.272 " fill="none" id="Entity-to-Other-1" style="stroke:#181818;stroke-width:1.0;"/><line style="stroke:#181818;stroke-width:1.0;" x1="386.2506" x2="391.9751" y1="107.3518" y2="99.1524"/><line style="stroke:#181818;stroke-width:1.0;" x1="386.2506" x2="395.7249" y1="107.3518" y2="110.5515"/><line style="stroke:#181818;stroke-width:1.0;" x1="386.2506" x2="393.85" y1="107.3518" y2="104.852"/><line style="stroke:#181818;stroke-width:1.0;" x1="383.1008" x2="385.6006" y1="104.177" y2="111.7764"/><text fill="#000000" font-family="sans-serif" font-size="13" lengthAdjust="spacing" textLength="78" x="298" y="105.499">One or many</text></g><!--MD5=[fac1c5e7ea3d749b0de4a89bb687e29c]
link Entity to Other--><g id="link_Entity_Other"><path codeLine="19" d="M278.74,87.602 C314,87.602 355.23,87.602 385.89,87.602 " fill="none" id="Entity-to-Other-2" style="stroke:#181818;stroke-width:1.0;stroke-dasharray:7.0,7.0;"/><line style="stroke:#181818;stroke-width:1.0;" x1="385.53" x2="393.53" y1="87.602" y2="81.602"/><line style="stroke:#181818;stroke-width:1.0;" x1="385.53" x2="393.53" y1="87.602" y2="93.602"/><line style="stroke:#181818;stroke-width:1.0;" x1="385.53" x2="393.53" y1="87.602" y2="87.602"/><ellipse cx="379.53" cy="87.602" fill="none" rx="4" ry="4" style="stroke:#181818;stroke-width:1.0;"/><text fill="#000000" font-family="sans-serif" font-size="13" lengthAdjust="spacing" textLength="80" x="297" y="80.499">Zero or many</text></g><!--MD5=[d20d678795562067fed00e50dc1d005a]
@startuml
package legend {
    entity Parent
    entity Child {
        parent
    }

    Child::parent ..|| Parent : "API accessor"
    Parent ||- -|{ Child : "   Foreign Key Relation"

    entity Entity {
      +indexed field
      non-indexed field
    }

    entity Other {}

    Entity -|| Other : "Exactly one"
    Entity -|{ Other : "One or many"
    Entity .o{ Other : "Zero or many"
}
@enduml

PlantUML version 1.2022.7(Mon Aug 22 19:01:30 CEST 2022)
(GPL source distribution)
Java Runtime: OpenJDK Runtime Environment
JVM: OpenJDK 64-Bit Server VM
Default Encoding: UTF-8
Language: en
Country: US
--></g></svg>