<?xml version="1.0" encoding="UTF-8" standalone="no"?><svg xmlns="http://www.w3.org/2000/svg" xmlns:xlink="http://www.w3.org/1999/xlink" contentStyleType="text/css" height="307px" preserveAspectRatio="none" style="width:474px;height:307px;background:#FFFFFF;" version="1.1" viewBox="0 0 474 307" width="474px" zoomAndPan="magnify"><defs/><g><!--MD5=[86674ab5735079aa6b5321d691891463]
cluster legend--><g id="cluster_legend"><path d="M8.5,6.602 L56.5,6.602 A3.75,3.75 0 0 1 59,9.102 L66,31.6699 L464.5,31.6699 A2.5,2.5 0 0 1 467,34.1699 L467,298.102 A2.5,2.5 0 0 1 464.5,300.602 L8.5,300.602 A2.5,2.5 0 0 1 6,298.102 L6,9.102 A2.5,2.5 0 0 1 8.5,6.602 " style="stroke:#000000;stroke-width:1.5;fill:none;"/><line style="stroke:#000000;stroke-width:1.5;fill:none;" x1="6" x2="66" y1="31.6699" y2="31.6699"/><text fill="#000000" font-family="sans-serif" font-size="14" font-weight="bold" lengthAdjust="spacing" textLength="47" x="10" y="23.5679">legend</text></g><!--MD5=[cf9bc73d4b319b8f5d50999aecc13d13]
class Parent--><g id="elem_Parent"><rect codeLine="2" fill="#F1F1F1" height="48" id="Parent" rx="2.5" ry="2.5" style="stroke:#181818;stroke-width:0.5;" width="76" x="22" y="63.602"/><ellipse cx="37" cy="79.602" fill="#ADD1B2" rx="11" ry="11" style="stroke:#181818;stroke-width:1.0;"/><path d="M33.3594,86.102 L33.3594,73.102 L41.0156,73.102 L41.0156,75.352 L35.7344,75.352 L35.7344,78.102 L40.75,78.102 L40.75,80.352 L35.7344,80.352 L35.7344,83.852 L41.0156,83.852 L41.0156,86.102 L33.3594,86.102 Z " fill="#000000"/><text fill="#000000" font-family="sans-serif" font-size="14" lengthAdjust="spacing" textLength="44" x="51" y="85.034">Parent</text><line style="stroke:#181818;stroke-width:0.5;" x1="23" x2="97" y1="95.602" y2="95.602"/><line style="stroke:#181818;stroke-width:0.5;" x1="23" x2="97" y1="103.602" y2="103.602"/></g><!--MD5=[661c05259cf57e4b4baa54079a4420a8]
class Child--><g id="elem_Child"><rect codeLine="3" fill="#F1F1F1" height="67.0679" id="Child" rx="2.5" ry="2.5" style="stroke:#181818;stroke-width:0.5;" width="67" x="113.5" y="213.602"/><ellipse cx="128.5" cy="229.602" fill="#ADD1B2" rx="11" ry="11" style="stroke:#181818;stroke-width:1.0;"/><path d="M124.8594,236.102 L124.8594,223.102 L132.5156,223.102 L132.5156,225.352 L127.2344,225.352 L127.2344,228.102 L132.25,228.102 L132.25,230.352 L127.2344,230.352 L127.2344,233.852 L132.5156,233.852 L132.5156,236.102 L124.8594,236.102 Z " fill="#000000"/><text fill="#000000" font-family="sans-serif" font-size="14" lengthAdjust="spacing" textLength="35" x="142.5" y="235.034">Child</text><line style="stroke:#181818;stroke-width:0.5;" x1="114.5" x2="179.5" y1="245.602" y2="245.602"/><text fill="#000000" font-family="sans-serif" font-size="14" lengthAdjust="spacing" textLength="45" x="119.5" y="264.5679">parent</text><line style="stroke:#181818;stroke-width:0.5;" x1="114.5" x2="179.5" y1="272.6699" y2="272.6699"/></g><!--MD5=[be996cdb8e6bf2fc7cb89c555f2cd144]
class Entity--><g id="elem_Entity"><rect codeLine="10" fill="#F1F1F1" height="86.1358" id="Entity" rx="2.5" ry="2.5" style="stroke:#181818;stroke-width:0.5;" width="145" x="133.5" y="44.602"/><ellipse cx="182.75" cy="60.602" fill="#ADD1B2" rx="11" ry="11" style="stroke:#181818;stroke-width:1.0;"/><path d="M179.1094,67.102 L179.1094,54.102 L186.7656,54.102 L186.7656,56.352 L181.4844,56.352 L181.4844,59.102 L186.5,59.102 L186.5,61.352 L181.4844,61.352 L181.4844,64.852 L186.7656,64.852 L186.7656,67.102 L179.1094,67.102 Z " fill="#000000"/><text fill="#000000" font-family="sans-serif" font-size="14" lengthAdjust="spacing" textLength="38" x="203.25" y="66.034">Entity</text><line style="stroke:#181818;stroke-width:0.5;" x1="134.5" x2="277.5" y1="76.602" y2="76.602"/><ellipse cx="144.5" cy="87.602" fill="none" rx="3" ry="3" style="stroke:#038048;stroke-width:1.0;"/><text fill="#000000" font-family="sans-serif" font-size="14" lengthAdjust="spacing" textLength="88" x="153.5" y="95.5679">indexed field</text><text fill="#000000" font-family="sans-serif" font-size="14" lengthAdjust="spacing" textLength="119" x="153.5" y="114.6358">non-indexed field</text><line style="stroke:#181818;stroke-width:0.5;" x1="134.5" x2="277.5" y1="122.7378" y2="122.7378"/></g><g id="elem_Object"><rect fill="#F1F1F1" height="50.1358" style="stroke:#181818;stroke-width:0.5;" width="58" x="393" y="62.602"/><text fill="#000000" font-family="sans-serif" font-size="14" lengthAdjust="spacing" textLength="44" x="400" y="79.5679">Object</text><line style="stroke:#181818;stroke-width:0.5;" x1="394" x2="450" y1="85.6699" y2="85.6699"/><text fill="#000000" font-family="sans-serif" font-size="14" lengthAdjust="spacing" textLength="22" x="399" y="104.6358">key</text></g><!--MD5=[983db49d2c83cabe74c751fcf84cc6b4]
link Child to Parent--><g id="link_Child_Parent"><path codeLine="7" d="M182,260.102 C266.71,260.102 216.51,194.992 193,160.602 C172.27,130.282 148.1,148.452 116,130.602 C108.45,126.402 100.77,121.302 93.62,116.112 " fill="none" id="Child-to-Parent" style="stroke:#181818;stroke-width:1.0;stroke-dasharray:7.0,7.0;"/><line style="stroke:#181818;stroke-width:1.0;" x1="88.5852" x2="93.3563" y1="117.3483" y2="110.9268"/><line style="stroke:#181818;stroke-width:1.0;" x1="90.9932" x2="95.7644" y1="119.1375" y2="112.716"/><line style="stroke:#181818;stroke-width:1.0;" x1="94.1815" x2="87.76" y1="116.5232" y2="111.752"/><text fill="#000000" font-family="sans-serif" font-size="13" lengthAdjust="spacing" textLength="74" x="206" y="175.499">API accessor</text></g><!--MD5=[5d1bf43d8009b239ac9ba90ae5e3b1fb]
link Parent to Child--><g id="link_Parent_Child"><path codeLine="8" d="M48.65,119.712 C43.9,138.112 41.42,161.312 51,179.602 C61.13,198.942 79.73,213.782 97.88,224.482 " fill="none" id="Parent-Child" style="stroke:#181818;stroke-width:1.0;"/><line style="stroke:#181818;stroke-width:1.0;" x1="98.0843" x2="107.9975" y1="224.6053" y2="223.2902"/><line style="stroke:#181818;stroke-width:1.0;" x1="98.0843" x2="102.1225" y1="224.6053" y2="233.7537"/><line style="stroke:#181818;stroke-width:1.0;" x1="98.0843" x2="105.06" y1="224.6053" y2="228.522"/><line style="stroke:#181818;stroke-width:1.0;" x1="98.2988" x2="94.3821" y1="220.1383" y2="227.114"/><line style="stroke:#181818;stroke-width:1.0;" x1="46.025" x2="53.7172" y1="114.3792" y2="116.577"/><line style="stroke:#181818;stroke-width:1.0;" x1="45.2009" x2="52.893" y1="117.2638" y2="119.4615"/><line style="stroke:#181818;stroke-width:1.0;" x1="48.7722" x2="50.97" y1="119.3242" y2="111.632"/><text fill="#000000" font-family="sans-serif" font-size="13" lengthAdjust="spacing" textLength="123" x="61" y="175.499">Foreign Key Relation</text></g><!--MD5=[df980e87abafed8b4ac7a4d5383255e6]
link Entity to Object--><g id="link_Entity_Object"><path codeLine="19" d="M278.54,107.752 C307.39,113.052 340.79,115.762 370.75,109.602 C375.84,108.552 381.04,106.982 386.09,105.152 " fill="none" id="Entity-to-Object" style="stroke:#181818;stroke-width:1.0;"/><line style="stroke:#181818;stroke-width:1.0;" x1="387.671" x2="390.5745" y1="100.2365" y2="107.691"/><line style="stroke:#181818;stroke-width:1.0;" x1="384.8756" x2="387.7791" y1="101.3253" y2="108.7798"/><line style="stroke:#181818;stroke-width:1.0;" x1="385.3955" x2="392.85" y1="105.4155" y2="102.512"/><text fill="#000000" font-family="sans-serif" font-size="13" lengthAdjust="spacing" textLength="68" x="301.75" y="105.499">Exactly one</text></g><!--MD5=[df980e87abafed8b4ac7a4d5383255e6]
link Entity to Object--><g id="link_Entity_Object"><path codeLine="20" d="M278.53,87.602 C314.11,87.602 355.47,87.602 384.62,87.602 " fill="none" id="Entity-to-Object-1" style="stroke:#181818;stroke-width:1.0;"/><line style="stroke:#181818;stroke-width:1.0;" x1="384.88" x2="392.88" y1="87.602" y2="81.602"/><line style="stroke:#181818;stroke-width:1.0;" x1="384.88" x2="392.88" y1="87.602" y2="93.602"/><line style="stroke:#181818;stroke-width:1.0;" x1="384.88" x2="392.88" y1="87.602" y2="87.602"/><line style="stroke:#181818;stroke-width:1.0;" x1="382.88" x2="382.88" y1="83.602" y2="91.602"/><text fill="#000000" font-family="sans-serif" font-size="13" lengthAdjust="spacing" textLength="78" x="296.75" y="80.499">One or many</text></g><!--MD5=[99df1ea65579c863f75de152b4a51b11]
@startuml
package legend {
    entity Parent
    entity Child {
        parent
    }

    Child::parent ..|| Parent : "API accessor"
    Parent ||- -|{ Child : "   Foreign Key Relation"

    entity Entity {
      +indexed field
      non-indexed field
    }

    object Object {
        key
    }

    Entity -|| Object : "Exactly one"
    Entity -|{ Object : "One or many"

'    Entity - -o| "Zero or one" Object : "Foreign Key Relation"
'    Entity ..|| "Exactly one" Object : ""
'    Entity - -o{ "Zero or many" Object : ""
'    Entity ..|{ "One or many" Object : "API Accessor"
}
@enduml

@startuml
package legend {
    entity Parent
    entity Child {
        parent
    }

    Child::parent ..|| Parent : "API accessor"
    Parent ||- -|{ Child : "   Foreign Key Relation"

    entity Entity {
      +indexed field
      non-indexed field
    }

    object Object {
        key
    }

    Entity -|| Object : "Exactly one"
    Entity -|{ Object : "One or many"

}
@enduml

PlantUML version 1.2022.6(Tue Jun 21 19:34:49 CEST 2022)
(GPL source distribution)
Java Runtime: OpenJDK Runtime Environment
JVM: OpenJDK 64-Bit Server VM
Default Encoding: UTF-8
Language: en
Country: US
--></g></svg>