<?xml version="1.0" encoding="UTF-8" standalone="no"?><svg xmlns="http://www.w3.org/2000/svg" xmlns:xlink="http://www.w3.org/1999/xlink" contentStyleType="text/css" height="1040px" preserveAspectRatio="none" style="width:502px;height:1040px;background:#FFFFFF;" version="1.1" viewBox="0 0 502 1040" width="502px" zoomAndPan="magnify"><defs/><g><!--MD5=[68a0c021ad4fbab63794e91c3c368f48]
class Block--><g id="elem_Block"><rect codeLine="1" fill="#F1F1F1" height="196.5433" id="Block" rx="2.5" ry="2.5" style="stroke:#181818;stroke-width:0.5;" width="98" x="191.98" y="7"/><ellipse cx="220.93" cy="23" fill="#ADD1B2" rx="11" ry="11" style="stroke:#181818;stroke-width:1.0;"/><path d="M217.2894,29.5 L217.2894,17.3594 L224.9456,17.3594 L224.9456,19.4844 L219.6644,19.4844 L219.6644,22.1406 L224.68,22.1406 L224.68,24.2656 L219.6644,24.2656 L219.6644,27.375 L224.9456,27.375 L224.9456,29.5 L217.2894,29.5 Z " fill="#000000"/><text fill="#000000" font-family="sans-serif" font-size="14" lengthAdjust="spacing" textLength="35" x="238.03" y="28.432">Block</text><line style="stroke:#181818;stroke-width:0.5;" x1="192.98" x2="288.98" y1="39" y2="39"/><ellipse cx="202.98" cy="54.034" fill="none" rx="3" ry="3" style="stroke:#038048;stroke-width:1.0;"/><text fill="#000000" font-family="sans-serif" font-size="14" lengthAdjust="spacing" textLength="13" x="211.98" y="57.9659">id</text><ellipse cx="202.98" cy="73.1019" fill="none" rx="3" ry="3" style="stroke:#038048;stroke-width:1.0;"/><text fill="#000000" font-family="sans-serif" font-size="14" lengthAdjust="spacing" textLength="51" x="211.98" y="77.0339">chainId</text><ellipse cx="202.98" cy="92.1698" fill="none" rx="3" ry="3" style="stroke:#038048;stroke-width:1.0;"/><text fill="#000000" font-family="sans-serif" font-size="14" lengthAdjust="spacing" textLength="44" x="211.98" y="96.1018">height</text><text fill="#000000" font-family="sans-serif" font-size="14" lengthAdjust="spacing" textLength="72" x="211.98" y="115.1697">timestamp</text><text fill="#000000" font-family="sans-serif" font-size="14" lengthAdjust="spacing" textLength="83" x="197.98" y="157.3055">transactions</text><text fill="#000000" font-family="sans-serif" font-size="14" lengthAdjust="spacing" textLength="67" x="197.98" y="176.3734">messages</text><text fill="#000000" font-family="sans-serif" font-size="14" lengthAdjust="spacing" textLength="44" x="197.98" y="195.4414">events</text><line style="stroke:#181818;stroke-width:1.0;stroke-dasharray:1.0,2.0;" x1="192.98" x2="211.48" y1="132.8056" y2="132.8056"/><text fill="#000000" font-family="sans-serif" font-size="14" lengthAdjust="spacing" textLength="59" x="211.48" y="137.7376">relations</text><line style="stroke:#181818;stroke-width:1.0;stroke-dasharray:1.0,2.0;" x1="270.48" x2="288.98" y1="132.8056" y2="132.8056"/></g><!--MD5=[4555bb1b0911a5adf28ce6dbe60fed2e]
class Transaction--><g id="elem_Transaction"><rect codeLine="12" fill="#F1F1F1" height="291.8829" id="Transaction" rx="2.5" ry="2.5" style="stroke:#181818;stroke-width:0.5;" width="124" x="178.98" y="271"/><ellipse cx="199.83" cy="287" fill="#ADD1B2" rx="11" ry="11" style="stroke:#181818;stroke-width:1.0;"/><path d="M196.1894,293.5 L196.1894,281.3594 L203.8456,281.3594 L203.8456,283.4844 L198.5644,283.4844 L198.5644,286.1406 L203.58,286.1406 L203.58,288.2656 L198.5644,288.2656 L198.5644,291.375 L203.8456,291.375 L203.8456,293.5 L196.1894,293.5 Z " fill="#000000"/><text fill="#000000" font-family="sans-serif" font-size="14" lengthAdjust="spacing" textLength="79" x="215.13" y="292.432">Transaction</text><line style="stroke:#181818;stroke-width:0.5;" x1="179.98" x2="301.98" y1="303" y2="303"/><ellipse cx="189.98" cy="318.034" fill="none" rx="3" ry="3" style="stroke:#038048;stroke-width:1.0;"/><text fill="#000000" font-family="sans-serif" font-size="14" lengthAdjust="spacing" textLength="13" x="198.98" y="321.9659">id</text><text fill="#000000" font-family="sans-serif" font-size="14" lengthAdjust="spacing" textLength="58" x="198.98" y="341.0339">gasUsed</text><text fill="#000000" font-family="sans-serif" font-size="14" lengthAdjust="spacing" textLength="76" x="198.98" y="360.1018">gasWanted</text><text fill="#000000" font-family="sans-serif" font-size="14" lengthAdjust="spacing" textLength="28" x="198.98" y="379.1697">fees</text><text fill="#000000" font-family="sans-serif" font-size="14" lengthAdjust="spacing" textLength="42" x="198.98" y="398.2376">memo</text><text fill="#000000" font-family="sans-serif" font-size="14" lengthAdjust="spacing" textLength="41" x="198.98" y="417.3055">status</text><text fill="#000000" font-family="sans-serif" font-size="14" lengthAdjust="spacing" textLength="21" x="198.98" y="436.3734">log</text><ellipse cx="189.98" cy="451.5094" fill="none" rx="3" ry="3" style="stroke:#038048;stroke-width:1.0;"/><text fill="#000000" font-family="sans-serif" font-size="14" lengthAdjust="spacing" textLength="97" x="198.98" y="455.4414">timeoutHeight</text><ellipse cx="189.98" cy="470.5773" fill="none" rx="3" ry="3" style="stroke:#038048;stroke-width:1.0;"/><text fill="#000000" font-family="sans-serif" font-size="14" lengthAdjust="spacing" textLength="98" x="198.98" y="474.5093">signerAddress</text><text fill="#000000" font-family="sans-serif" font-size="14" lengthAdjust="spacing" textLength="44" x="184.98" y="516.6451">events</text><text fill="#000000" font-family="sans-serif" font-size="14" lengthAdjust="spacing" textLength="67" x="184.98" y="535.713">messages</text><text fill="#000000" font-family="sans-serif" font-size="14" lengthAdjust="spacing" textLength="35" x="184.98" y="554.7809">block</text><line style="stroke:#181818;stroke-width:1.0;stroke-dasharray:1.0,2.0;" x1="179.98" x2="211.48" y1="492.1452" y2="492.1452"/><text fill="#000000" font-family="sans-serif" font-size="14" lengthAdjust="spacing" textLength="59" x="211.48" y="497.0772">relations</text><line style="stroke:#181818;stroke-width:1.0;stroke-dasharray:1.0,2.0;" x1="270.48" x2="301.98" y1="492.1452" y2="492.1452"/></g><!--MD5=[bea5b0d46523efab5ea1c1d339f396f0]
class Message--><g id="elem_Message"><rect codeLine="28" fill="#F1F1F1" height="158.4075" id="Message" rx="2.5" ry="2.5" style="stroke:#181818;stroke-width:0.5;" width="92" x="84.98" y="649"/><ellipse cx="99.98" cy="665" fill="#ADD1B2" rx="11" ry="11" style="stroke:#181818;stroke-width:1.0;"/><path d="M96.3394,671.5 L96.3394,659.3594 L103.9956,659.3594 L103.9956,661.4844 L98.7144,661.4844 L98.7144,664.1406 L103.73,664.1406 L103.73,666.2656 L98.7144,666.2656 L98.7144,669.375 L103.9956,669.375 L103.9956,671.5 L96.3394,671.5 Z " fill="#000000"/><text fill="#000000" font-family="sans-serif" font-size="14" lengthAdjust="spacing" textLength="60" x="113.98" y="670.432">Message</text><line style="stroke:#181818;stroke-width:0.5;" x1="85.98" x2="175.98" y1="681" y2="681"/><ellipse cx="95.98" cy="696.034" fill="none" rx="3" ry="3" style="stroke:#038048;stroke-width:1.0;"/><text fill="#000000" font-family="sans-serif" font-size="14" lengthAdjust="spacing" textLength="13" x="104.98" y="699.9659">id</text><ellipse cx="95.98" cy="715.1019" fill="none" rx="3" ry="3" style="stroke:#038048;stroke-width:1.0;"/><text fill="#000000" font-family="sans-serif" font-size="14" lengthAdjust="spacing" textLength="49" x="104.98" y="719.0339">typeUrl</text><text fill="#000000" font-family="sans-serif" font-size="14" lengthAdjust="spacing" textLength="28" x="104.98" y="738.1018">json</text><text fill="#000000" font-family="sans-serif" font-size="14" lengthAdjust="spacing" textLength="76" x="90.98" y="780.2376">transaction</text><text fill="#000000" font-family="sans-serif" font-size="14" lengthAdjust="spacing" textLength="35" x="90.98" y="799.3055">block</text><line style="stroke:#181818;stroke-width:1.0;stroke-dasharray:1.0,2.0;" x1="85.98" x2="101.48" y1="755.7377" y2="755.7377"/><text fill="#000000" font-family="sans-serif" font-size="14" lengthAdjust="spacing" textLength="59" x="101.48" y="760.6697">relations</text><line style="stroke:#181818;stroke-width:1.0;stroke-dasharray:1.0,2.0;" x1="160.48" x2="175.98" y1="755.7377" y2="755.7377"/></g><!--MD5=[ac13618b1a974308c1f12eb6c57723dc]
class Event--><g id="elem_Event"><rect codeLine="37" fill="#F1F1F1" height="196.5433" id="Event" rx="2.5" ry="2.5" style="stroke:#181818;stroke-width:0.5;" width="88" x="288.98" y="630"/><ellipse cx="312.53" cy="646" fill="#ADD1B2" rx="11" ry="11" style="stroke:#181818;stroke-width:1.0;"/><path d="M308.8894,652.5 L308.8894,640.3594 L316.5456,640.3594 L316.5456,642.4844 L311.2644,642.4844 L311.2644,645.1406 L316.28,645.1406 L316.28,647.2656 L311.2644,647.2656 L311.2644,650.375 L316.5456,650.375 L316.5456,652.5 L308.8894,652.5 Z " fill="#000000"/><text fill="#000000" font-family="sans-serif" font-size="14" lengthAdjust="spacing" textLength="37" x="328.43" y="651.432">Event</text><line style="stroke:#181818;stroke-width:0.5;" x1="289.98" x2="375.98" y1="662" y2="662"/><ellipse cx="299.98" cy="677.034" fill="none" rx="3" ry="3" style="stroke:#038048;stroke-width:1.0;"/><text fill="#000000" font-family="sans-serif" font-size="14" lengthAdjust="spacing" textLength="13" x="308.98" y="680.9659">id</text><ellipse cx="299.98" cy="696.1019" fill="none" rx="3" ry="3" style="stroke:#038048;stroke-width:1.0;"/><text fill="#000000" font-family="sans-serif" font-size="14" lengthAdjust="spacing" textLength="29" x="308.98" y="700.0339">type</text><text fill="#000000" font-family="sans-serif" font-size="14" lengthAdjust="spacing" textLength="21" x="308.98" y="719.1018">log</text><text fill="#000000" font-family="sans-serif" font-size="14" lengthAdjust="spacing" textLength="66" x="294.98" y="761.2376">attributes</text><text fill="#000000" font-family="sans-serif" font-size="14" lengthAdjust="spacing" textLength="76" x="294.98" y="780.3055">transaction</text><text fill="#000000" font-family="sans-serif" font-size="14" lengthAdjust="spacing" textLength="35" x="294.98" y="799.3734">block</text><text fill="#000000" font-family="sans-serif" font-size="14" lengthAdjust="spacing" textLength="4" x="294.98" y="818.4414"> </text><line style="stroke:#181818;stroke-width:1.0;stroke-dasharray:1.0,2.0;" x1="289.98" x2="303.48" y1="736.7377" y2="736.7377"/><text fill="#000000" font-family="sans-serif" font-size="14" lengthAdjust="spacing" textLength="59" x="303.48" y="741.6697">relations</text><line style="stroke:#181818;stroke-width:1.0;stroke-dasharray:1.0,2.0;" x1="362.48" x2="375.98" y1="736.7377" y2="736.7377"/></g><!--MD5=[0ff3a076ca0442d3fc1df7e98c6b8832]
class EventAttribute--><g id="elem_EventAttribute"><rect codeLine="48" fill="#F1F1F1" height="139.3396" id="EventAttribute" rx="2.5" ry="2.5" style="stroke:#181818;stroke-width:0.5;" width="129" x="267.48" y="894"/><ellipse cx="282.48" cy="910" fill="#ADD1B2" rx="11" ry="11" style="stroke:#181818;stroke-width:1.0;"/><path d="M278.8394,916.5 L278.8394,904.3594 L286.4956,904.3594 L286.4956,906.4844 L281.2144,906.4844 L281.2144,909.1406 L286.23,909.1406 L286.23,911.2656 L281.2144,911.2656 L281.2144,914.375 L286.4956,914.375 L286.4956,916.5 L278.8394,916.5 Z " fill="#000000"/><text fill="#000000" font-family="sans-serif" font-size="14" lengthAdjust="spacing" textLength="97" x="296.48" y="915.432">EventAttribute</text><line style="stroke:#181818;stroke-width:0.5;" x1="268.48" x2="395.48" y1="926" y2="926"/><ellipse cx="278.48" cy="941.034" fill="none" rx="3" ry="3" style="stroke:#038048;stroke-width:1.0;"/><text fill="#000000" font-family="sans-serif" font-size="14" lengthAdjust="spacing" textLength="13" x="287.48" y="944.9659">id</text><ellipse cx="278.48" cy="960.1019" fill="none" rx="3" ry="3" style="stroke:#038048;stroke-width:1.0;"/><text fill="#000000" font-family="sans-serif" font-size="14" lengthAdjust="spacing" textLength="22" x="287.48" y="964.0339">key</text><ellipse cx="278.48" cy="979.1698" fill="none" rx="3" ry="3" style="stroke:#038048;stroke-width:1.0;"/><text fill="#000000" font-family="sans-serif" font-size="14" lengthAdjust="spacing" textLength="36" x="287.48" y="983.1018">value</text><text fill="#000000" font-family="sans-serif" font-size="14" lengthAdjust="spacing" textLength="37" x="273.48" y="1025.2376">event</text><line style="stroke:#181818;stroke-width:1.0;stroke-dasharray:1.0,2.0;" x1="268.48" x2="302.48" y1="1000.7377" y2="1000.7377"/><text fill="#000000" font-family="sans-serif" font-size="14" lengthAdjust="spacing" textLength="59" x="302.48" y="1005.6697">relations</text><line style="stroke:#181818;stroke-width:1.0;stroke-dasharray:1.0,2.0;" x1="361.48" x2="395.48" y1="1000.7377" y2="1000.7377"/></g><!--MD5=[b056b54640e8d43cd87144fcc6474095]
link Block to Transaction--><g id="link_Block_Transaction"><path codeLine="57" d="M290.98,152 C347.91,152 339.05,212.1 314.27,274.89 " fill="none" id="Block-to-Transaction" style="stroke:#181818;stroke-width:1.0;stroke-dasharray:7.0,7.0;"/><line style="stroke:#181818;stroke-width:1.0;" x1="314.4107" x2="316.9719" y1="274.5441" y2="284.2105"/><line style="stroke:#181818;stroke-width:1.0;" x1="314.4107" x2="305.8481" y1="274.5441" y2="279.7095"/><line style="stroke:#181818;stroke-width:1.0;" x1="314.4107" x2="311.41" y1="274.5441" y2="281.96"/><ellipse cx="316.6612" cy="268.9821" fill="none" rx="4" ry="4" style="stroke:#181818;stroke-width:1.0;"/></g><!--MD5=[a3398fa1b5c2c803182fc58de52a450f]
link Transaction to Block--><g id="link_Transaction_Block"><path codeLine="63" d="M303.98,549.5 C366.76,549.5 314.56,328.7 302.98,267 C299.72,249.64 294.67,231.74 288.83,214.46 " fill="none" id="Transaction-to-Block" style="stroke:#181818;stroke-width:1.0;stroke-dasharray:7.0,7.0;"/><line style="stroke:#181818;stroke-width:1.0;" x1="284.1159" x2="291.6771" y1="213.0871" y2="210.4741"/><line style="stroke:#181818;stroke-width:1.0;" x1="285.0957" x2="292.657" y1="215.9226" y2="213.3096"/><line style="stroke:#181818;stroke-width:1.0;" x1="289.203" x2="286.59" y1="215.5612" y2="208"/></g><!--MD5=[322bf1e375885291387ef111d753aa10]
link Block to Message--><g id="link_Block_Message"><path codeLine="58" d="M190.98,171 C6,171 63.12,478.96 104.44,636.49 " fill="none" id="Block-to-Message" style="stroke:#181818;stroke-width:1.0;stroke-dasharray:7.0,7.0;"/><line style="stroke:#181818;stroke-width:1.0;" x1="104.3391" x2="112.1815" y1="636.0647" y2="642.2694"/><line style="stroke:#181818;stroke-width:1.0;" x1="104.3391" x2="100.5785" y1="636.0647" y2="645.3306"/><line style="stroke:#181818;stroke-width:1.0;" x1="104.3391" x2="106.38" y1="636.0647" y2="643.8"/><ellipse cx="102.8085" cy="630.2632" fill="none" rx="4" ry="4" style="stroke:#181818;stroke-width:1.0;"/></g><!--MD5=[1ab016f66a6d229c85b379804917b16b]
link Message to Block--><g id="link_Message_Block"><path codeLine="66" d="M177.98,794 C244.2,794 186.93,710.47 176.98,645 C171.46,608.72 158.37,602.3 152.98,566 C133.45,434.55 120.09,395.75 152.98,267 C158.93,243.71 169.02,220.16 180.29,198.52 " fill="none" id="Message-to-Block" style="stroke:#181818;stroke-width:1.0;stroke-dasharray:7.0,7.0;"/><line style="stroke:#181818;stroke-width:1.0;" x1="178.031" x2="185.0961" y1="194.2561" y2="198.009"/><line style="stroke:#181818;stroke-width:1.0;" x1="176.6237" x2="183.6888" y1="196.9056" y2="200.6584"/><line style="stroke:#181818;stroke-width:1.0;" x1="179.6872" x2="183.44" y1="199.6651" y2="192.6"/></g><!--MD5=[7542f2780a2441df3f0fdc3e95a4f9ad]
link Block to Event--><g id="link_Block_Event"><path codeLine="59" d="M290.98,190 C375.85,190 361.48,459.96 345.94,617.06 " fill="none" id="Block-to-Event" style="stroke:#181818;stroke-width:1.0;stroke-dasharray:7.0,7.0;"/><line style="stroke:#181818;stroke-width:1.0;" x1="345.9603" x2="351.1299" y1="616.8401" y2="625.4002"/><line style="stroke:#181818;stroke-width:1.0;" x1="345.9603" x2="339.1901" y1="616.8401" y2="624.1998"/><line style="stroke:#181818;stroke-width:1.0;" x1="345.9603" x2="345.16" y1="616.8401" y2="624.8"/><ellipse cx="346.5605" cy="610.8702" fill="none" rx="4" ry="4" style="stroke:#181818;stroke-width:1.0;"/></g><!--MD5=[9fa77b6e1afd0588ebcbb5c7bfd4579e]
link Event to Block--><g id="link_Event_Block"><path codeLine="70" d="M377.98,794 C495.09,794 418.41,376.91 377.98,267 C362.89,226 332.22,188.32 303.71,159.74 " fill="none" id="Event-to-Block" style="stroke:#181818;stroke-width:1.0;stroke-dasharray:7.0,7.0;"/><line style="stroke:#181818;stroke-width:1.0;" x1="298.7808" x2="304.3967" y1="160.4967" y2="154.7992"/><line style="stroke:#181818;stroke-width:1.0;" x1="300.9174" x2="306.5333" y1="162.6027" y2="156.9051"/><line style="stroke:#181818;stroke-width:1.0;" x1="304.4375" x2="298.74" y1="160.4559" y2="154.84"/></g><!--MD5=[cad993570d7606d4c3cbe9f82d13bd55]
link Transaction to Event--><g id="link_Transaction_Event"><path codeLine="61" d="M303.98,511.5 C327.8,511.5 335.18,563.87 336.54,616.98 " fill="none" id="Transaction-to-Event" style="stroke:#181818;stroke-width:1.0;stroke-dasharray:7.0,7.0;"/><line style="stroke:#181818;stroke-width:1.0;" x1="336.5329" x2="342.6888" y1="616.6815" y2="624.5622"/><line style="stroke:#181818;stroke-width:1.0;" x1="336.5329" x2="330.6912" y1="616.6815" y2="624.7978"/><line style="stroke:#181818;stroke-width:1.0;" x1="336.5329" x2="336.69" y1="616.6815" y2="624.68"/><line style="stroke:#181818;stroke-width:1.0;" x1="340.4928" x2="332.4944" y1="614.6034" y2="614.7605"/></g><!--MD5=[713d2e09b8905f308d86bd6658fe52f3]
link Event to Transaction--><g id="link_Event_Transaction"><path codeLine="69" d="M287.98,775 C201.22,775 194.62,670.23 206.82,574.13 " fill="none" id="Event-to-Transaction" style="stroke:#181818;stroke-width:1.0;stroke-dasharray:7.0,7.0;"/><line style="stroke:#181818;stroke-width:1.0;" x1="203.235" x2="211.1644" y1="570.6844" y2="571.745"/><line style="stroke:#181818;stroke-width:1.0;" x1="202.8374" x2="210.7667" y1="573.658" y2="574.7185"/><line style="stroke:#181818;stroke-width:1.0;" x1="206.6695" x2="207.73" y1="575.1794" y2="567.25"/></g><!--MD5=[c098d0eca0d8b3e7778ad03720f2afa0]
link Transaction to Message--><g id="link_Transaction_Message"><path codeLine="62" d="M177.98,530.5 C154.44,530.5 142.67,584.49 136.79,635.87 " fill="none" id="Transaction-to-Message" style="stroke:#181818;stroke-width:1.0;stroke-dasharray:7.0,7.0;"/><line style="stroke:#181818;stroke-width:1.0;" x1="136.8068" x2="141.9155" y1="635.626" y2="644.2226"/><line style="stroke:#181818;stroke-width:1.0;" x1="136.8068" x2="129.9845" y1="635.626" y2="642.9374"/><line style="stroke:#181818;stroke-width:1.0;" x1="136.8068" x2="135.95" y1="635.626" y2="643.58"/><line style="stroke:#181818;stroke-width:1.0;" x1="140.998" x2="133.044" y1="634.0659" y2="633.2091"/></g><!--MD5=[f06a6e9817b35517feb8d73e2310c73e]
link Message to Transaction--><g id="link_Message_Transaction"><path codeLine="65" d="M177.98,775 C221.65,775 236.5,670.23 240.94,574.13 " fill="none" id="Message-to-Transaction" style="stroke:#181818;stroke-width:1.0;stroke-dasharray:7.0,7.0;"/><line style="stroke:#181818;stroke-width:1.0;" x1="237.0624" x2="245.0551" y1="571.0851" y2="571.4276"/><line style="stroke:#181818;stroke-width:1.0;" x1="236.9339" x2="244.9266" y1="574.0823" y2="574.4249"/><line style="stroke:#181818;stroke-width:1.0;" x1="240.8875" x2="241.23" y1="575.2527" y2="567.26"/></g><!--MD5=[da0582324838b8bff12f95251c5ee9d9]
link Event to EventAttribute--><g id="link_Event_EventAttribute"><path codeLine="68" d="M287.98,756 C234.17,756 256.53,823.89 285.41,881.81 " fill="none" id="Event-to-EventAttribute" style="stroke:#181818;stroke-width:1.0;stroke-dasharray:7.0,7.0;"/><line style="stroke:#181818;stroke-width:1.0;" x1="285.4023" x2="294.3715" y1="881.7947" y2="886.2167"/><line style="stroke:#181818;stroke-width:1.0;" x1="285.4023" x2="283.6685" y1="881.7947" y2="891.6433"/><line style="stroke:#181818;stroke-width:1.0;" x1="285.4023" x2="289.02" y1="881.7947" y2="888.93"/><line style="stroke:#181818;stroke-width:1.0;" x1="288.0655" x2="280.9302" y1="878.202" y2="881.8197"/></g><!--MD5=[ce666b22349b306d819eee8db289d38d]
link EventAttribute to Event--><g id="link_EventAttribute_Event"><path codeLine="72" d="M397.98,1020.5 C480.73,1020.5 435.04,907.2 388.89,821.88 " fill="none" id="EventAttribute-to-Event" style="stroke:#181818;stroke-width:1.0;stroke-dasharray:7.0,7.0;"/><line style="stroke:#181818;stroke-width:1.0;" x1="383.9882" x2="391.0083" y1="821.2483" y2="817.4118"/><line style="stroke:#181818;stroke-width:1.0;" x1="385.4269" x2="392.447" y1="823.8808" y2="820.0443"/><line style="stroke:#181818;stroke-width:1.0;" x1="389.4165" x2="385.58" y1="822.84" y2="815.82"/></g><!--MD5=[687d2b210ef8ca6c0fe8cfe6a4b0bd96]
@startuml
entity Block {
  +id
  +chainId
  +height
  timestamp
  ..relations..
  transactions
  messages
  events
}

entity Transaction {
  +id
  gasUsed
  gasWanted
  fees
  memo
  status
  log
  +timeoutHeight
  +signerAddress
  ..relations..
  events
  messages
  block
}

entity Message {
  +id
  +typeUrl
  json
  ..relations..
  transaction
  block
}

entity Event {
  +id
  +type
  log
  ..relations..
  attributes
  transaction
  block

}

entity EventAttribute {
  +id
  +key
  +value
  ..relations..
  event
}


Block::transaction ..o{ Transaction
Block::messages ..o{ Message
Block::events ..o{ Event

Transaction::events ..|{ Event
Transaction::messages ..|{ Message
Transaction::block ..|| Block

Message::transaction ..|| Transaction
Message::block ...|| Block

Event::attributes ..|{ EventAttribute
Event::transaction ..|| Transaction
Event::block ..|| Block

EventAttribute::event ..|| Event
@enduml

PlantUML version 1.2022.7(Mon Aug 22 19:01:30 CEST 2022)
(GPL source distribution)
Java Runtime: OpenJDK Runtime Environment
JVM: OpenJDK 64-Bit Server VM
Default Encoding: UTF-8
Language: en
Country: US
--></g></svg>