<?xml version="1.0" encoding="UTF-8" standalone="no"?><svg xmlns="http://www.w3.org/2000/svg" xmlns:xlink="http://www.w3.org/1999/xlink" contentStyleType="text/css" height="871px" preserveAspectRatio="none" style="width:521px;height:871px;background:#FFFFFF;" version="1.1" viewBox="0 0 521 871" width="521px" zoomAndPan="magnify"><defs/><g><!--MD5=[68a0c021ad4fbab63794e91c3c368f48]
class Block--><g id="elem_Block"><rect codeLine="1" fill="#F1F1F1" height="196.5433" id="Block" rx="2.5" ry="2.5" style="stroke:#181818;stroke-width:0.5;" width="98" x="70.8" y="668"/><ellipse cx="99.75" cy="684" fill="#ADD1B2" rx="11" ry="11" style="stroke:#181818;stroke-width:1.0;"/><path d="M96.1094,690.5 L96.1094,677.5 L103.7656,677.5 L103.7656,679.75 L98.4844,679.75 L98.4844,682.5 L103.5,682.5 L103.5,684.75 L98.4844,684.75 L98.4844,688.25 L103.7656,688.25 L103.7656,690.5 L96.1094,690.5 Z " fill="#000000"/><text fill="#000000" font-family="sans-serif" font-size="14" lengthAdjust="spacing" textLength="35" x="116.85" y="689.432">Block</text><line style="stroke:#181818;stroke-width:0.5;" x1="71.8" x2="167.8" y1="700" y2="700"/><ellipse cx="81.8" cy="711" fill="none" rx="3" ry="3" style="stroke:#038048;stroke-width:1.0;"/><text fill="#000000" font-family="sans-serif" font-size="14" lengthAdjust="spacing" textLength="13" x="90.8" y="718.9659">id</text><ellipse cx="81.8" cy="730.0679" fill="none" rx="3" ry="3" style="stroke:#038048;stroke-width:1.0;"/><text fill="#000000" font-family="sans-serif" font-size="14" lengthAdjust="spacing" textLength="51" x="90.8" y="738.0339">chainId</text><ellipse cx="81.8" cy="749.1358" fill="none" rx="3" ry="3" style="stroke:#038048;stroke-width:1.0;"/><text fill="#000000" font-family="sans-serif" font-size="14" lengthAdjust="spacing" textLength="44" x="90.8" y="757.1018">height</text><text fill="#000000" font-family="sans-serif" font-size="14" lengthAdjust="spacing" textLength="72" x="90.8" y="776.1697">timestamp</text><text fill="#000000" font-family="sans-serif" font-size="14" lengthAdjust="spacing" textLength="83" x="76.8" y="818.3055">transactions</text><text fill="#000000" font-family="sans-serif" font-size="14" lengthAdjust="spacing" textLength="67" x="76.8" y="837.3734">messages</text><text fill="#000000" font-family="sans-serif" font-size="14" lengthAdjust="spacing" textLength="44" x="76.8" y="856.4414">events</text><line style="stroke:#181818;stroke-width:1.0;stroke-dasharray:1.0,2.0;" x1="71.8" x2="90.3" y1="793.8056" y2="793.8056"/><text fill="#000000" font-family="sans-serif" font-size="14" lengthAdjust="spacing" textLength="59" x="90.3" y="798.7376">relations</text><line style="stroke:#181818;stroke-width:1.0;stroke-dasharray:1.0,2.0;" x1="149.3" x2="167.8" y1="793.8056" y2="793.8056"/></g><!--MD5=[4555bb1b0911a5adf28ce6dbe60fed2e]
class Transaction--><g id="elem_Transaction"><rect codeLine="12" fill="#F1F1F1" height="310.9508" id="Transaction" rx="2.5" ry="2.5" style="stroke:#181818;stroke-width:0.5;" width="124" x="93.8" y="7"/><ellipse cx="114.65" cy="23" fill="#ADD1B2" rx="11" ry="11" style="stroke:#181818;stroke-width:1.0;"/><path d="M111.0094,29.5 L111.0094,16.5 L118.6656,16.5 L118.6656,18.75 L113.3844,18.75 L113.3844,21.5 L118.4,21.5 L118.4,23.75 L113.3844,23.75 L113.3844,27.25 L118.6656,27.25 L118.6656,29.5 L111.0094,29.5 Z " fill="#000000"/><text fill="#000000" font-family="sans-serif" font-size="14" lengthAdjust="spacing" textLength="79" x="129.95" y="28.432">Transaction</text><line style="stroke:#181818;stroke-width:0.5;" x1="94.8" x2="216.8" y1="39" y2="39"/><ellipse cx="104.8" cy="50" fill="none" rx="3" ry="3" style="stroke:#038048;stroke-width:1.0;"/><text fill="#000000" font-family="sans-serif" font-size="14" lengthAdjust="spacing" textLength="13" x="113.8" y="57.9659">id</text><text fill="#000000" font-family="sans-serif" font-size="14" lengthAdjust="spacing" textLength="58" x="113.8" y="77.0339">gasUsed</text><text fill="#000000" font-family="sans-serif" font-size="14" lengthAdjust="spacing" textLength="76" x="113.8" y="96.1018">gasWanted</text><text fill="#000000" font-family="sans-serif" font-size="14" lengthAdjust="spacing" textLength="28" x="113.8" y="115.1697">fees</text><text fill="#000000" font-family="sans-serif" font-size="14" lengthAdjust="spacing" textLength="42" x="113.8" y="134.2376">memo</text><text fill="#000000" font-family="sans-serif" font-size="14" lengthAdjust="spacing" textLength="41" x="113.8" y="153.3055">status</text><text fill="#000000" font-family="sans-serif" font-size="14" lengthAdjust="spacing" textLength="21" x="113.8" y="172.3734">log</text><ellipse cx="104.8" cy="183.4754" fill="none" rx="3" ry="3" style="stroke:#038048;stroke-width:1.0;"/><text fill="#000000" font-family="sans-serif" font-size="14" lengthAdjust="spacing" textLength="97" x="113.8" y="191.4414">timeoutHeight</text><ellipse cx="104.8" cy="202.5433" fill="none" rx="3" ry="3" style="stroke:#038048;stroke-width:1.0;"/><text fill="#000000" font-family="sans-serif" font-size="14" lengthAdjust="spacing" textLength="98" x="113.8" y="210.5093">signerAddress</text><text fill="#000000" font-family="sans-serif" font-size="14" lengthAdjust="spacing" textLength="44" x="99.8" y="252.6451">events</text><text fill="#000000" font-family="sans-serif" font-size="14" lengthAdjust="spacing" textLength="67" x="99.8" y="271.713">messages</text><text fill="#000000" font-family="sans-serif" font-size="14" lengthAdjust="spacing" textLength="35" x="99.8" y="290.7809">block</text><text fill="#000000" font-family="sans-serif" font-size="14" lengthAdjust="spacing" textLength="4" x="99.8" y="309.8489"> </text><line style="stroke:#181818;stroke-width:1.0;stroke-dasharray:1.0,2.0;" x1="94.8" x2="126.3" y1="228.1452" y2="228.1452"/><text fill="#000000" font-family="sans-serif" font-size="14" lengthAdjust="spacing" textLength="59" x="126.3" y="233.0772">relations</text><line style="stroke:#181818;stroke-width:1.0;stroke-dasharray:1.0,2.0;" x1="185.3" x2="216.8" y1="228.1452" y2="228.1452"/></g><!--MD5=[bea5b0d46523efab5ea1c1d339f396f0]
class Message--><g id="elem_Message"><rect codeLine="32" fill="#F1F1F1" height="158.4075" id="Message" rx="2.5" ry="2.5" style="stroke:#181818;stroke-width:0.5;" width="92" x="136.8" y="446"/><ellipse cx="151.8" cy="462" fill="#ADD1B2" rx="11" ry="11" style="stroke:#181818;stroke-width:1.0;"/><path d="M148.1594,468.5 L148.1594,455.5 L155.8156,455.5 L155.8156,457.75 L150.5344,457.75 L150.5344,460.5 L155.55,460.5 L155.55,462.75 L150.5344,462.75 L150.5344,466.25 L155.8156,466.25 L155.8156,468.5 L148.1594,468.5 Z " fill="#000000"/><text fill="#000000" font-family="sans-serif" font-size="14" lengthAdjust="spacing" textLength="60" x="165.8" y="467.432">Message</text><line style="stroke:#181818;stroke-width:0.5;" x1="137.8" x2="227.8" y1="478" y2="478"/><ellipse cx="147.8" cy="489" fill="none" rx="3" ry="3" style="stroke:#038048;stroke-width:1.0;"/><text fill="#000000" font-family="sans-serif" font-size="14" lengthAdjust="spacing" textLength="13" x="156.8" y="496.9659">id</text><ellipse cx="147.8" cy="508.0679" fill="none" rx="3" ry="3" style="stroke:#038048;stroke-width:1.0;"/><text fill="#000000" font-family="sans-serif" font-size="14" lengthAdjust="spacing" textLength="49" x="156.8" y="516.0339">typeUrl</text><text fill="#000000" font-family="sans-serif" font-size="14" lengthAdjust="spacing" textLength="28" x="156.8" y="535.1018">json</text><text fill="#000000" font-family="sans-serif" font-size="14" lengthAdjust="spacing" textLength="76" x="142.8" y="577.2376">transaction</text><text fill="#000000" font-family="sans-serif" font-size="14" lengthAdjust="spacing" textLength="35" x="142.8" y="596.3055">block</text><line style="stroke:#181818;stroke-width:1.0;stroke-dasharray:1.0,2.0;" x1="137.8" x2="153.3" y1="552.7377" y2="552.7377"/><text fill="#000000" font-family="sans-serif" font-size="14" lengthAdjust="spacing" textLength="59" x="153.3" y="557.6697">relations</text><line style="stroke:#181818;stroke-width:1.0;stroke-dasharray:1.0,2.0;" x1="212.3" x2="227.8" y1="552.7377" y2="552.7377"/></g><!--MD5=[ac13618b1a974308c1f12eb6c57723dc]
class Event--><g id="elem_Event"><rect codeLine="47" fill="#F1F1F1" height="196.5433" id="Event" rx="2.5" ry="2.5" style="stroke:#181818;stroke-width:0.5;" width="92" x="268.8" y="64"/><ellipse cx="294.15" cy="80" fill="#ADD1B2" rx="11" ry="11" style="stroke:#181818;stroke-width:1.0;"/><path d="M290.5094,86.5 L290.5094,73.5 L298.1656,73.5 L298.1656,75.75 L292.8844,75.75 L292.8844,78.5 L297.9,78.5 L297.9,80.75 L292.8844,80.75 L292.8844,84.25 L298.1656,84.25 L298.1656,86.5 L290.5094,86.5 Z " fill="#000000"/><text fill="#000000" font-family="sans-serif" font-size="14" lengthAdjust="spacing" textLength="37" x="310.45" y="85.432">Event</text><line style="stroke:#181818;stroke-width:0.5;" x1="269.8" x2="359.8" y1="96" y2="96"/><ellipse cx="279.8" cy="107" fill="none" rx="3" ry="3" style="stroke:#038048;stroke-width:1.0;"/><text fill="#000000" font-family="sans-serif" font-size="14" lengthAdjust="spacing" textLength="13" x="288.8" y="114.9659">id</text><ellipse cx="279.8" cy="126.0679" fill="none" rx="3" ry="3" style="stroke:#038048;stroke-width:1.0;"/><text fill="#000000" font-family="sans-serif" font-size="14" lengthAdjust="spacing" textLength="29" x="288.8" y="134.0339">type</text><text fill="#000000" font-family="sans-serif" font-size="14" lengthAdjust="spacing" textLength="66" x="288.8" y="153.1018">attributes</text><text fill="#000000" font-family="sans-serif" font-size="14" lengthAdjust="spacing" textLength="21" x="288.8" y="172.1697">log</text><text fill="#000000" font-family="sans-serif" font-size="14" lengthAdjust="spacing" textLength="76" x="274.8" y="214.3055">transaction</text><text fill="#000000" font-family="sans-serif" font-size="14" lengthAdjust="spacing" textLength="35" x="274.8" y="233.3734">block</text><text fill="#000000" font-family="sans-serif" font-size="14" lengthAdjust="spacing" textLength="4" x="274.8" y="252.4414"> </text><line style="stroke:#181818;stroke-width:1.0;stroke-dasharray:1.0,2.0;" x1="269.8" x2="285.3" y1="189.8056" y2="189.8056"/><text fill="#000000" font-family="sans-serif" font-size="14" lengthAdjust="spacing" textLength="59" x="285.3" y="194.7376">relations</text><line style="stroke:#181818;stroke-width:1.0;stroke-dasharray:1.0,2.0;" x1="344.3" x2="359.8" y1="189.8056" y2="189.8056"/></g><g id="elem_EventAttribute"><rect fill="#F1F1F1" height="69.2038" style="stroke:#181818;stroke-width:0.5;" width="111" x="404.3" y="127.5"/><text fill="#000000" font-family="sans-serif" font-size="14" lengthAdjust="spacing" textLength="97" x="411.3" y="144.4659">EventAttribute</text><line style="stroke:#181818;stroke-width:0.5;" x1="405.3" x2="514.3" y1="150.5679" y2="150.5679"/><text fill="#000000" font-family="sans-serif" font-size="14" lengthAdjust="spacing" textLength="22" x="410.3" y="169.5339">key</text><text fill="#000000" font-family="sans-serif" font-size="14" lengthAdjust="spacing" textLength="36" x="410.3" y="188.6018">value</text></g><!--MD5=[a3398fa1b5c2c803182fc58de52a450f]
link Transaction to Block--><g id="link_Transaction_Block"><path codeLine="29" d="M81.38,268.36 C61.21,302.67 42.12,342 31.8,381 C6,478.53 6.38,510.37 31.8,608 C39.02,635.73 52.32,663.75 66.43,688.31 " fill="none" id="Transaction-Block" style="stroke:#181818;stroke-width:1.0;"/><line style="stroke:#181818;stroke-width:1.0;" x1="72.054" x2="65.1479" y1="690.0079" y2="694.046"/><line style="stroke:#181818;stroke-width:1.0;" x1="70.5397" x2="63.6337" y1="687.4181" y2="691.4562"/><line style="stroke:#181818;stroke-width:1.0;" x1="66.5819" x2="70.62" y1="688.5739" y2="695.48"/><line style="stroke:#181818;stroke-width:1.0;" x1="81.5908" x2="80.5375" y1="267.99" y2="258.0456"/><line style="stroke:#181818;stroke-width:1.0;" x1="81.5908" x2="90.8425" y1="267.99" y2="264.1944"/><line style="stroke:#181818;stroke-width:1.0;" x1="81.5908" x2="85.69" y1="267.99" y2="261.12"/><line style="stroke:#181818;stroke-width:1.0;" x1="77.1311" x2="84.0011" y1="267.6579" y2="271.7571"/></g><!--MD5=[a3398fa1b5c2c803182fc58de52a450f]
link Transaction to Block--><g id="link_Transaction_Block"><path codeLine="30" d="M92.8,285 C18.08,285 60.95,519.54 93.57,660.9 " fill="none" id="Transaction-to-Block" style="stroke:#181818;stroke-width:1.0;stroke-dasharray:7.0,7.0;"/><line style="stroke:#181818;stroke-width:1.0;" x1="98.2015" x2="90.4089" y1="663.1689" y2="664.9785"/><line style="stroke:#181818;stroke-width:1.0;" x1="97.5229" x2="89.7303" y1="660.2466" y2="662.0562"/><line style="stroke:#181818;stroke-width:1.0;" x1="93.4004" x2="95.21" y1="660.1774" y2="667.97"/></g><!--MD5=[c098d0eca0d8b3e7778ad03720f2afa0]
link Transaction to Message--><g id="link_Transaction_Message"><path codeLine="41" d="M168.25,329.41 C170.93,365.3 173.67,401.94 176.04,433.61 " fill="none" id="Transaction-Message" style="stroke:#181818;stroke-width:1.0;"/><line style="stroke:#181818;stroke-width:1.0;" x1="176.0695" x2="182.6531" y1="434.0026" y2="441.5297"/><line style="stroke:#181818;stroke-width:1.0;" x1="176.0695" x2="170.6869" y1="434.0026" y2="442.4303"/><line style="stroke:#181818;stroke-width:1.0;" x1="176.0695" x2="176.67" y1="434.0026" y2="441.98"/><line style="stroke:#181818;stroke-width:1.0;" x1="179.9082" x2="171.9307" y1="431.708" y2="432.3084"/><line style="stroke:#181818;stroke-width:1.0;" x1="163.9339" x2="171.9124" y1="325.3624" y2="324.7761"/><line style="stroke:#181818;stroke-width:1.0;" x1="164.1537" x2="172.1322" y1="328.3543" y2="327.7681"/><line style="stroke:#181818;stroke-width:1.0;" x1="168.2162" x2="167.63" y1="329.0585" y2="321.08"/></g><!--MD5=[c098d0eca0d8b3e7778ad03720f2afa0]
link Transaction to Message--><g id="link_Transaction_Message"><path codeLine="42" d="M218.8,266 C253.6,266 233.55,359.23 212.02,433.61 " fill="none" id="Transaction-to-Message" style="stroke:#181818;stroke-width:1.0;stroke-dasharray:7.0,7.0;"/><line style="stroke:#181818;stroke-width:1.0;" x1="211.9281" x2="215.426" y1="433.9853" y2="443.3536"/><line style="stroke:#181818;stroke-width:1.0;" x1="211.9281" x2="203.914" y1="433.9853" y2="439.9664"/><line style="stroke:#181818;stroke-width:1.0;" x1="211.9281" x2="209.67" y1="433.9853" y2="441.66"/><line style="stroke:#181818;stroke-width:1.0;" x1="216.33" x2="208.6553" y1="433.1957" y2="430.9376"/></g><!--MD5=[f06a6e9817b35517feb8d73e2310c73e]
link Message to Transaction--><g id="link_Message_Transaction"><path codeLine="45" d="M229.8,572 C344.56,572 288.18,414.17 229.01,294.59 " fill="none" id="Message-to-Transaction" style="stroke:#181818;stroke-width:1.0;stroke-dasharray:7.0,7.0;"/><line style="stroke:#181818;stroke-width:1.0;" x1="224.0313" x2="231.1933" y1="293.5733" y2="290.0087"/><line style="stroke:#181818;stroke-width:1.0;" x1="225.3681" x2="232.53" y1="296.259" y2="292.6944"/><line style="stroke:#181818;stroke-width:1.0;" x1="229.3946" x2="225.83" y1="295.3719" y2="288.21"/></g><!--MD5=[1ab016f66a6d229c85b379804917b16b]
link Message to Block--><g id="link_Message_Block"><path codeLine="44" d="M135.8,591 C102.22,591 94.62,623.45 96.85,660.36 " fill="none" id="Message-to-Block" style="stroke:#181818;stroke-width:1.0;stroke-dasharray:7.0,7.0;"/><line style="stroke:#181818;stroke-width:1.0;" x1="101.1068" x2="93.1296" y1="663.4996" y2="664.1032"/><line style="stroke:#181818;stroke-width:1.0;" x1="100.8805" x2="92.9033" y1="660.5082" y2="661.1117"/><line style="stroke:#181818;stroke-width:1.0;" x1="96.8164" x2="97.42" y1="659.8128" y2="667.79"/></g><!--MD5=[cad993570d7606d4c3cbe9f82d13bd55]
link Transaction to Event--><g id="link_Transaction_Event"><path codeLine="63" d="M218.8,247 C230.91,247 242.17,243.12 252.41,237.02 " fill="none" id="Transaction-to-Event" style="stroke:#181818;stroke-width:1.0;stroke-dasharray:7.0,7.0;"/><line style="stroke:#181818;stroke-width:1.0;" x1="254.1168" x2="257.417" y1="235.8674" y2="226.4276"/><line style="stroke:#181818;stroke-width:1.0;" x1="254.1168" x2="264.103" y1="235.8674" y2="236.3924"/><line style="stroke:#181818;stroke-width:1.0;" x1="254.1168" x2="260.76" y1="235.8674" y2="231.41"/><line style="stroke:#181818;stroke-width:1.0;" x1="250.2273" x2="254.6847" y1="233.6601" y2="240.3033"/></g><!--MD5=[713d2e09b8905f308d86bd6658fe52f3]
link Event to Transaction--><g id="link_Event_Transaction"><path codeLine="66" d="M250.32,162 C245.64,162 240.89,162 236.14,162 " fill="none" id="Event-Transaction" style="stroke:#181818;stroke-width:1.0;"/><line style="stroke:#181818;stroke-width:1.0;" x1="230.12" x2="230.12" y1="166" y2="158"/><line style="stroke:#181818;stroke-width:1.0;" x1="233.12" x2="233.12" y1="166" y2="158"/><line style="stroke:#181818;stroke-width:1.0;" x1="234.12" x2="226.12" y1="162" y2="162"/><line style="stroke:#181818;stroke-width:1.0;" x1="252.42" x2="260.42" y1="162" y2="156"/><line style="stroke:#181818;stroke-width:1.0;" x1="252.42" x2="260.42" y1="162" y2="168"/><line style="stroke:#181818;stroke-width:1.0;" x1="252.42" x2="260.42" y1="162" y2="162"/><line style="stroke:#181818;stroke-width:1.0;" x1="250.42" x2="250.42" y1="158" y2="166"/></g><!--MD5=[713d2e09b8905f308d86bd6658fe52f3]
link Event to Transaction--><g id="link_Event_Transaction"><path codeLine="67" d="M267.8,209 C257.07,209 246.18,207.11 235.63,204.09 " fill="none" id="Event-to-Transaction" style="stroke:#181818;stroke-width:1.0;stroke-dasharray:7.0,7.0;"/><line style="stroke:#181818;stroke-width:1.0;" x1="228.6351" x2="231.0816" y1="206.0616" y2="198.4449"/><line style="stroke:#181818;stroke-width:1.0;" x1="231.4914" x2="233.9379" y1="206.979" y2="199.3623"/><line style="stroke:#181818;stroke-width:1.0;" x1="233.6667" x2="226.05" y1="203.4765" y2="201.03"/></g><!--MD5=[da0582324838b8bff12f95251c5ee9d9]
link Event to EventAttribute--><g id="link_Event_EventAttribute"><path codeLine="64" d="M361.8,147 C372.37,151.12 383.51,155.12 394.33,158.58 " fill="none" id="Event-to-EventAttribute" style="stroke:#181818;stroke-width:1.0;"/><line style="stroke:#181818;stroke-width:1.0;" x1="396.4901" x2="405.8955" y1="159.2494" y2="155.8526"/><line style="stroke:#181818;stroke-width:1.0;" x1="396.4901" x2="402.3845" y1="159.2494" y2="167.3274"/><line style="stroke:#181818;stroke-width:1.0;" x1="396.4901" x2="404.14" y1="159.2494" y2="161.59"/><line style="stroke:#181818;stroke-width:1.0;" x1="395.7479" x2="393.4073" y1="154.8392" y2="162.4892"/></g><!--MD5=[9fa77b6e1afd0588ebcbb5c7bfd4579e]
link Event to Block--><g id="link_Event_Block"><path codeLine="68" d="M361.8,228 C373.97,228 365.33,407.47 254.8,608 C233.44,646.75 201.49,684.58 174.04,713.45 " fill="none" id="Event-to-Block" style="stroke:#181818;stroke-width:1.0;stroke-dasharray:7.0,7.0;"/><line style="stroke:#181818;stroke-width:1.0;" x1="174.6257" x2="168.8556" y1="718.6156" y2="713.0743"/><line style="stroke:#181818;stroke-width:1.0;" x1="176.7037" x2="170.9336" y1="716.4518" y2="710.9105"/><line style="stroke:#181818;stroke-width:1.0;" x1="174.5113" x2="168.97" y1="712.9599" y2="718.73"/></g><!--MD5=[9ff15988d7898b9884fe862873f12f0f]
@startuml
entity Block {
  +id
  +chainId
  +height
  timestamp
  ..relations..
  transactions
  messages
  events
}

entity Transaction {
  +id
  gasUsed
  gasWanted
  fees
  memo
  status
  log
  +timeoutHeight
  +signerAddress
  ..relations..
  events
  messages
  block
  
}

Transaction }|- -|| Block
Transaction::block ..|| Block

entity Message {
  +id
  +typeUrl
  json
  ..relations..
  transaction
  block
}

Transaction ||- -|{ Message
Transaction::messages ...|{ Message

Message::block ..|| Block
Message::transaction ..|| Transaction

entity Event {
  +id
  +type
  attributes
  log
  ..relations..
  transaction
  block
  
}

object EventAttribute {
  key
  value
}

Transaction::events .|{ Event
Event::attributes -|{ EventAttribute

Event }|- -|| Transaction
Event::transaction ..|| Transaction
Event::block ..|| Block
@enduml

PlantUML version 1.2022.6(Tue Jun 21 19:34:49 CEST 2022)
(GPL source distribution)
Java Runtime: OpenJDK Runtime Environment
JVM: OpenJDK 64-Bit Server VM
Default Encoding: UTF-8
Language: en
Country: US
--></g></svg>