<?xml version="1.0" encoding="UTF-8" standalone="no"?><svg xmlns="http://www.w3.org/2000/svg" xmlns:xlink="http://www.w3.org/1999/xlink" contentStyleType="text/css" height="819px" preserveAspectRatio="none" style="width:419px;height:819px;background:#FFFFFF;" version="1.1" viewBox="0 0 419 819" width="419px" zoomAndPan="magnify"><defs/><g><!--MD5=[68a0c021ad4fbab63794e91c3c368f48]
class Block--><g id="elem_Block"><rect codeLine="1" fill="#F1F1F1" height="196.5433" id="Block" rx="2.5" ry="2.5" style="stroke:#181818;stroke-width:0.5;" width="98" x="66.45" y="7"/><ellipse cx="95.4" cy="23" fill="#ADD1B2" rx="11" ry="11" style="stroke:#181818;stroke-width:1.0;"/><path d="M91.7594,29.5 L91.7594,17.3594 L99.4156,17.3594 L99.4156,19.4844 L94.1344,19.4844 L94.1344,22.1406 L99.15,22.1406 L99.15,24.2656 L94.1344,24.2656 L94.1344,27.375 L99.4156,27.375 L99.4156,29.5 L91.7594,29.5 Z " fill="#000000"/><text fill="#000000" font-family="sans-serif" font-size="14" lengthAdjust="spacing" textLength="35" x="112.5" y="28.432">Block</text><line style="stroke:#181818;stroke-width:0.5;" x1="67.45" x2="163.45" y1="39" y2="39"/><ellipse cx="77.45" cy="54.034" fill="none" rx="3" ry="3" style="stroke:#038048;stroke-width:1.0;"/><text fill="#000000" font-family="sans-serif" font-size="14" lengthAdjust="spacing" textLength="13" x="86.45" y="57.9659">id</text><ellipse cx="77.45" cy="73.1019" fill="none" rx="3" ry="3" style="stroke:#038048;stroke-width:1.0;"/><text fill="#000000" font-family="sans-serif" font-size="14" lengthAdjust="spacing" textLength="51" x="86.45" y="77.0339">chainId</text><ellipse cx="77.45" cy="92.1698" fill="none" rx="3" ry="3" style="stroke:#038048;stroke-width:1.0;"/><text fill="#000000" font-family="sans-serif" font-size="14" lengthAdjust="spacing" textLength="44" x="86.45" y="96.1018">height</text><text fill="#000000" font-family="sans-serif" font-size="14" lengthAdjust="spacing" textLength="72" x="86.45" y="115.1697">timestamp</text><text fill="#000000" font-family="sans-serif" font-size="14" lengthAdjust="spacing" textLength="83" x="72.45" y="157.3055">transactions</text><text fill="#000000" font-family="sans-serif" font-size="14" lengthAdjust="spacing" textLength="67" x="72.45" y="176.3734">messages</text><text fill="#000000" font-family="sans-serif" font-size="14" lengthAdjust="spacing" textLength="44" x="72.45" y="195.4414">events</text><line style="stroke:#181818;stroke-width:1.0;stroke-dasharray:1.0,2.0;" x1="67.45" x2="85.95" y1="132.8056" y2="132.8056"/><text fill="#000000" font-family="sans-serif" font-size="14" lengthAdjust="spacing" textLength="59" x="85.95" y="137.7376">relations</text><line style="stroke:#181818;stroke-width:1.0;stroke-dasharray:1.0,2.0;" x1="144.95" x2="163.45" y1="132.8056" y2="132.8056"/></g><!--MD5=[4555bb1b0911a5adf28ce6dbe60fed2e]
class Transaction--><g id="elem_Transaction"><rect codeLine="12" fill="#F1F1F1" height="291.8829" id="Transaction" rx="2.5" ry="2.5" style="stroke:#181818;stroke-width:0.5;" width="124" x="53.45" y="264"/><ellipse cx="74.3" cy="280" fill="#ADD1B2" rx="11" ry="11" style="stroke:#181818;stroke-width:1.0;"/><path d="M70.6594,286.5 L70.6594,274.3594 L78.3156,274.3594 L78.3156,276.4844 L73.0344,276.4844 L73.0344,279.1406 L78.05,279.1406 L78.05,281.2656 L73.0344,281.2656 L73.0344,284.375 L78.3156,284.375 L78.3156,286.5 L70.6594,286.5 Z " fill="#000000"/><text fill="#000000" font-family="sans-serif" font-size="14" lengthAdjust="spacing" textLength="79" x="89.6" y="285.432">Transaction</text><line style="stroke:#181818;stroke-width:0.5;" x1="54.45" x2="176.45" y1="296" y2="296"/><ellipse cx="64.45" cy="311.034" fill="none" rx="3" ry="3" style="stroke:#038048;stroke-width:1.0;"/><text fill="#000000" font-family="sans-serif" font-size="14" lengthAdjust="spacing" textLength="13" x="73.45" y="314.9659">id</text><text fill="#000000" font-family="sans-serif" font-size="14" lengthAdjust="spacing" textLength="58" x="73.45" y="334.0339">gasUsed</text><text fill="#000000" font-family="sans-serif" font-size="14" lengthAdjust="spacing" textLength="76" x="73.45" y="353.1018">gasWanted</text><text fill="#000000" font-family="sans-serif" font-size="14" lengthAdjust="spacing" textLength="28" x="73.45" y="372.1697">fees</text><text fill="#000000" font-family="sans-serif" font-size="14" lengthAdjust="spacing" textLength="42" x="73.45" y="391.2376">memo</text><text fill="#000000" font-family="sans-serif" font-size="14" lengthAdjust="spacing" textLength="41" x="73.45" y="410.3055">status</text><text fill="#000000" font-family="sans-serif" font-size="14" lengthAdjust="spacing" textLength="21" x="73.45" y="429.3734">log</text><ellipse cx="64.45" cy="444.5094" fill="none" rx="3" ry="3" style="stroke:#038048;stroke-width:1.0;"/><text fill="#000000" font-family="sans-serif" font-size="14" lengthAdjust="spacing" textLength="97" x="73.45" y="448.4414">timeoutHeight</text><ellipse cx="64.45" cy="463.5773" fill="none" rx="3" ry="3" style="stroke:#038048;stroke-width:1.0;"/><text fill="#000000" font-family="sans-serif" font-size="14" lengthAdjust="spacing" textLength="98" x="73.45" y="467.5093">signerAddress</text><text fill="#000000" font-family="sans-serif" font-size="14" lengthAdjust="spacing" textLength="44" x="59.45" y="509.6451">events</text><text fill="#000000" font-family="sans-serif" font-size="14" lengthAdjust="spacing" textLength="67" x="59.45" y="528.713">messages</text><text fill="#000000" font-family="sans-serif" font-size="14" lengthAdjust="spacing" textLength="35" x="59.45" y="547.7809">block</text><line style="stroke:#181818;stroke-width:1.0;stroke-dasharray:1.0,2.0;" x1="54.45" x2="85.95" y1="485.1452" y2="485.1452"/><text fill="#000000" font-family="sans-serif" font-size="14" lengthAdjust="spacing" textLength="59" x="85.95" y="490.0772">relations</text><line style="stroke:#181818;stroke-width:1.0;stroke-dasharray:1.0,2.0;" x1="144.95" x2="176.45" y1="485.1452" y2="485.1452"/></g><!--MD5=[bea5b0d46523efab5ea1c1d339f396f0]
class Message--><g id="elem_Message"><rect codeLine="28" fill="#F1F1F1" height="158.4075" id="Message" rx="2.5" ry="2.5" style="stroke:#181818;stroke-width:0.5;" width="92" x="7.45" y="635.5"/><ellipse cx="22.45" cy="651.5" fill="#ADD1B2" rx="11" ry="11" style="stroke:#181818;stroke-width:1.0;"/><path d="M18.8094,658 L18.8094,645.8594 L26.4656,645.8594 L26.4656,647.9844 L21.1844,647.9844 L21.1844,650.6406 L26.2,650.6406 L26.2,652.7656 L21.1844,652.7656 L21.1844,655.875 L26.4656,655.875 L26.4656,658 L18.8094,658 Z " fill="#000000"/><text fill="#000000" font-family="sans-serif" font-size="14" lengthAdjust="spacing" textLength="60" x="36.45" y="656.932">Message</text><line style="stroke:#181818;stroke-width:0.5;" x1="8.45" x2="98.45" y1="667.5" y2="667.5"/><ellipse cx="18.45" cy="682.534" fill="none" rx="3" ry="3" style="stroke:#038048;stroke-width:1.0;"/><text fill="#000000" font-family="sans-serif" font-size="14" lengthAdjust="spacing" textLength="13" x="27.45" y="686.4659">id</text><ellipse cx="18.45" cy="701.6019" fill="none" rx="3" ry="3" style="stroke:#038048;stroke-width:1.0;"/><text fill="#000000" font-family="sans-serif" font-size="14" lengthAdjust="spacing" textLength="49" x="27.45" y="705.5339">typeUrl</text><text fill="#000000" font-family="sans-serif" font-size="14" lengthAdjust="spacing" textLength="28" x="27.45" y="724.6018">json</text><text fill="#000000" font-family="sans-serif" font-size="14" lengthAdjust="spacing" textLength="76" x="13.45" y="766.7376">transaction</text><text fill="#000000" font-family="sans-serif" font-size="14" lengthAdjust="spacing" textLength="35" x="13.45" y="785.8055">block</text><line style="stroke:#181818;stroke-width:1.0;stroke-dasharray:1.0,2.0;" x1="8.45" x2="23.95" y1="742.2377" y2="742.2377"/><text fill="#000000" font-family="sans-serif" font-size="14" lengthAdjust="spacing" textLength="59" x="23.95" y="747.1697">relations</text><line style="stroke:#181818;stroke-width:1.0;stroke-dasharray:1.0,2.0;" x1="82.95" x2="98.45" y1="742.2377" y2="742.2377"/></g><!--MD5=[ac13618b1a974308c1f12eb6c57723dc]
class Event--><g id="elem_Event"><rect codeLine="37" fill="#F1F1F1" height="196.5433" id="Event" rx="2.5" ry="2.5" style="stroke:#181818;stroke-width:0.5;" width="88" x="186.45" y="616"/><ellipse cx="210" cy="632" fill="#ADD1B2" rx="11" ry="11" style="stroke:#181818;stroke-width:1.0;"/><path d="M206.3594,638.5 L206.3594,626.3594 L214.0156,626.3594 L214.0156,628.4844 L208.7344,628.4844 L208.7344,631.1406 L213.75,631.1406 L213.75,633.2656 L208.7344,633.2656 L208.7344,636.375 L214.0156,636.375 L214.0156,638.5 L206.3594,638.5 Z " fill="#000000"/><text fill="#000000" font-family="sans-serif" font-size="14" lengthAdjust="spacing" textLength="37" x="225.9" y="637.432">Event</text><line style="stroke:#181818;stroke-width:0.5;" x1="187.45" x2="273.45" y1="648" y2="648"/><ellipse cx="197.45" cy="663.034" fill="none" rx="3" ry="3" style="stroke:#038048;stroke-width:1.0;"/><text fill="#000000" font-family="sans-serif" font-size="14" lengthAdjust="spacing" textLength="13" x="206.45" y="666.9659">id</text><ellipse cx="197.45" cy="682.1019" fill="none" rx="3" ry="3" style="stroke:#038048;stroke-width:1.0;"/><text fill="#000000" font-family="sans-serif" font-size="14" lengthAdjust="spacing" textLength="29" x="206.45" y="686.0339">type</text><text fill="#000000" font-family="sans-serif" font-size="14" lengthAdjust="spacing" textLength="21" x="206.45" y="705.1018">log</text><text fill="#000000" font-family="sans-serif" font-size="14" lengthAdjust="spacing" textLength="66" x="192.45" y="747.2376">attributes</text><text fill="#000000" font-family="sans-serif" font-size="14" lengthAdjust="spacing" textLength="76" x="192.45" y="766.3055">transaction</text><text fill="#000000" font-family="sans-serif" font-size="14" lengthAdjust="spacing" textLength="35" x="192.45" y="785.3734">block</text><text fill="#000000" font-family="sans-serif" font-size="14" lengthAdjust="spacing" textLength="4" x="192.45" y="804.4414"> </text><line style="stroke:#181818;stroke-width:1.0;stroke-dasharray:1.0,2.0;" x1="187.45" x2="200.95" y1="722.7377" y2="722.7377"/><text fill="#000000" font-family="sans-serif" font-size="14" lengthAdjust="spacing" textLength="59" x="200.95" y="727.6697">relations</text><line style="stroke:#181818;stroke-width:1.0;stroke-dasharray:1.0,2.0;" x1="259.95" x2="273.45" y1="722.7377" y2="722.7377"/></g><!--MD5=[0ff3a076ca0442d3fc1df7e98c6b8832]
class EventAttribute--><g id="elem_EventAttribute"><rect codeLine="48" fill="#F1F1F1" height="139.3396" id="EventAttribute" rx="2.5" ry="2.5" style="stroke:#181818;stroke-width:0.5;" width="129" x="283.95" y="340.5"/><ellipse cx="298.95" cy="356.5" fill="#ADD1B2" rx="11" ry="11" style="stroke:#181818;stroke-width:1.0;"/><path d="M295.3094,363 L295.3094,350.8594 L302.9656,350.8594 L302.9656,352.9844 L297.6844,352.9844 L297.6844,355.6406 L302.7,355.6406 L302.7,357.7656 L297.6844,357.7656 L297.6844,360.875 L302.9656,360.875 L302.9656,363 L295.3094,363 Z " fill="#000000"/><text fill="#000000" font-family="sans-serif" font-size="14" lengthAdjust="spacing" textLength="97" x="312.95" y="361.932">EventAttribute</text><line style="stroke:#181818;stroke-width:0.5;" x1="284.95" x2="411.95" y1="372.5" y2="372.5"/><ellipse cx="294.95" cy="387.534" fill="none" rx="3" ry="3" style="stroke:#038048;stroke-width:1.0;"/><text fill="#000000" font-family="sans-serif" font-size="14" lengthAdjust="spacing" textLength="13" x="303.95" y="391.4659">id</text><ellipse cx="294.95" cy="406.6019" fill="none" rx="3" ry="3" style="stroke:#038048;stroke-width:1.0;"/><text fill="#000000" font-family="sans-serif" font-size="14" lengthAdjust="spacing" textLength="22" x="303.95" y="410.5339">key</text><ellipse cx="294.95" cy="425.6698" fill="none" rx="3" ry="3" style="stroke:#038048;stroke-width:1.0;"/><text fill="#000000" font-family="sans-serif" font-size="14" lengthAdjust="spacing" textLength="36" x="303.95" y="429.6018">value</text><text fill="#000000" font-family="sans-serif" font-size="14" lengthAdjust="spacing" textLength="37" x="289.95" y="471.7376">event</text><line style="stroke:#181818;stroke-width:1.0;stroke-dasharray:1.0,2.0;" x1="284.95" x2="318.95" y1="447.2377" y2="447.2377"/><text fill="#000000" font-family="sans-serif" font-size="14" lengthAdjust="spacing" textLength="59" x="318.95" y="452.1697">relations</text><line style="stroke:#181818;stroke-width:1.0;stroke-dasharray:1.0,2.0;" x1="377.95" x2="411.95" y1="447.2377" y2="447.2377"/></g><!--MD5=[b056b54640e8d43cd87144fcc6474095]
link Block to Transaction--><g id="link_Block_Transaction"><path codeLine="57" d="M115.45,213.74 C115.45,226.9 115.45,240.54 115.45,254.22 " fill="none" id="Block-Transaction" style="stroke:#181818;stroke-width:1.0;"/><line style="stroke:#181818;stroke-width:1.0;" x1="115.45" x2="121.45" y1="254.18" y2="262.18"/><line style="stroke:#181818;stroke-width:1.0;" x1="115.45" x2="109.45" y1="254.18" y2="262.18"/><line style="stroke:#181818;stroke-width:1.0;" x1="115.45" x2="115.45" y1="254.18" y2="262.18"/><ellipse cx="115.45" cy="248.18" fill="none" rx="4" ry="4" style="stroke:#181818;stroke-width:1.0;"/><line style="stroke:#181818;stroke-width:1.0;" x1="111.45" x2="119.45" y1="209.81" y2="209.81"/><line style="stroke:#181818;stroke-width:1.0;" x1="111.45" x2="119.45" y1="212.81" y2="212.81"/><line style="stroke:#181818;stroke-width:1.0;" x1="115.45" x2="115.45" y1="213.81" y2="205.81"/></g><!--MD5=[322bf1e375885291387ef111d753aa10]
link Block to Message--><g id="link_Block_Message"><path codeLine="58" d="M61.84,194.17 C50.96,216.2 41.12,240.33 35.45,264 C6,387 21.01,534.25 36.02,625.86 " fill="none" id="Block-Message" style="stroke:#181818;stroke-width:1.0;"/><line style="stroke:#181818;stroke-width:1.0;" x1="35.9971" x2="43.2287" y1="625.7085" y2="632.6153"/><line style="stroke:#181818;stroke-width:1.0;" x1="35.9971" x2="31.3913" y1="625.7085" y2="634.5847"/><line style="stroke:#181818;stroke-width:1.0;" x1="35.9971" x2="37.31" y1="625.7085" y2="633.6"/><ellipse cx="35.0125" cy="619.7898" fill="none" rx="4" ry="4" style="stroke:#181818;stroke-width:1.0;"/><line style="stroke:#181818;stroke-width:1.0;" x1="59.9935" x2="67.1288" y1="188.9388" y2="192.5565"/><line style="stroke:#181818;stroke-width:1.0;" x1="58.6369" x2="65.7722" y1="191.6145" y2="195.2322"/><line style="stroke:#181818;stroke-width:1.0;" x1="61.7523" x2="65.37" y1="194.3153" y2="187.18"/></g><!--MD5=[7542f2780a2441df3f0fdc3e95a4f9ad]
link Block to Event--><g id="link_Block_Event"><path codeLine="59" d="M169.12,198.84 C179.12,219.68 188.34,242.12 194.45,264 C226.27,377.9 233.07,513.9 233.3,606.25 " fill="none" id="Block-Event" style="stroke:#181818;stroke-width:1.0;"/><line style="stroke:#181818;stroke-width:1.0;" x1="233.2857" x2="239.3" y1="606.09" y2="614.0793"/><line style="stroke:#181818;stroke-width:1.0;" x1="233.2857" x2="227.3" y1="606.09" y2="614.1007"/><line style="stroke:#181818;stroke-width:1.0;" x1="233.2857" x2="233.3" y1="606.09" y2="614.09"/><ellipse cx="233.275" cy="600.09" fill="none" rx="4" ry="4" style="stroke:#181818;stroke-width:1.0;"/><line style="stroke:#181818;stroke-width:1.0;" x1="163.7741" x2="170.9606" y1="197.0406" y2="193.5259"/><line style="stroke:#181818;stroke-width:1.0;" x1="165.0921" x2="172.2787" y1="199.7356" y2="196.2209"/><line style="stroke:#181818;stroke-width:1.0;" x1="169.1247" x2="165.61" y1="198.8766" y2="191.69"/></g><!--MD5=[cad993570d7606d4c3cbe9f82d13bd55]
link Transaction to Event--><g id="link_Transaction_Event"><path codeLine="61" d="M173.99,564.99 C179.39,579.19 184.77,593.35 189.96,606.99 " fill="none" id="Transaction-Event" style="stroke:#181818;stroke-width:1.0;"/><line style="stroke:#181818;stroke-width:1.0;" x1="189.9498" x2="198.3991" y1="606.9712" y2="612.3198"/><line style="stroke:#181818;stroke-width:1.0;" x1="189.9498" x2="187.1809" y1="606.9712" y2="616.5802"/><line style="stroke:#181818;stroke-width:1.0;" x1="189.9498" x2="192.79" y1="606.9712" y2="614.45"/><line style="stroke:#181818;stroke-width:1.0;" x1="192.9791" x2="185.5003" y1="603.6813" y2="606.5216"/><line style="stroke:#181818;stroke-width:1.0;" x1="168.9807" x2="176.4595" y1="563.0695" y2="560.2293"/><line style="stroke:#181818;stroke-width:1.0;" x1="170.0458" x2="177.5246" y1="565.8741" y2="563.0339"/><line style="stroke:#181818;stroke-width:1.0;" x1="174.1402" x2="171.3" y1="565.3888" y2="557.91"/></g><!--MD5=[c098d0eca0d8b3e7778ad03720f2afa0]
link Transaction to Message--><g id="link_Transaction_Message"><path codeLine="62" d="M83.74,565.7 C79.51,586.36 75.29,606.92 71.41,625.87 " fill="none" id="Transaction-Message" style="stroke:#181818;stroke-width:1.0;"/><line style="stroke:#181818;stroke-width:1.0;" x1="71.4528" x2="75.7168" y1="625.7043" y2="634.7496"/><line style="stroke:#181818;stroke-width:1.0;" x1="71.4528" x2="63.9632" y1="625.7043" y2="632.3304"/><line style="stroke:#181818;stroke-width:1.0;" x1="71.4528" x2="69.84" y1="625.7043" y2="633.54"/><line style="stroke:#181818;stroke-width:1.0;" x1="75.7739" x2="67.9382" y1="624.5517" y2="622.9389"/><line style="stroke:#181818;stroke-width:1.0;" x1="80.6101" x2="88.448" y1="561.088" y2="562.6899"/><line style="stroke:#181818;stroke-width:1.0;" x1="80.0093" x2="87.8473" y1="564.0273" y2="565.6292"/><line style="stroke:#181818;stroke-width:1.0;" x1="83.7281" x2="85.33" y1="565.808" y2="557.97"/></g><!--MD5=[ce666b22349b306d819eee8db289d38d]
link EventAttribute to Event--><g id="link_EventAttribute_Event"><path codeLine="64" d="M318.31,488.28 C304.26,524.29 287.31,567.73 272.07,606.81 " fill="none" id="EventAttribute-Event" style="stroke:#181818;stroke-width:1.0;"/><line style="stroke:#181818;stroke-width:1.0;" x1="274.3716" x2="266.9204" y1="611.9204" y2="609.0084"/><line style="stroke:#181818;stroke-width:1.0;" x1="275.4636" x2="268.0124" y1="609.1262" y2="606.2142"/><line style="stroke:#181818;stroke-width:1.0;" x1="272.102" x2="269.19" y1="606.7388" y2="614.19"/><line style="stroke:#181818;stroke-width:1.0;" x1="318.2204" x2="315.528" y1="488.506" y2="478.8753"/><line style="stroke:#181818;stroke-width:1.0;" x1="318.2204" x2="326.712" y1="488.506" y2="483.2247"/><line style="stroke:#181818;stroke-width:1.0;" x1="318.2204" x2="321.12" y1="488.506" y2="481.05"/><line style="stroke:#181818;stroke-width:1.0;" x1="313.7675" x2="321.2236" y1="488.9203" y2="491.8198"/></g><!--MD5=[328d95d6d3ee8d5db78c2b8ffb8142ee]
@startuml
entity Block {
  +id
  +chainId
  +height
  timestamp
  ..relations..
  transactions
  messages
  events
}

entity Transaction {
  +id
  gasUsed
  gasWanted
  fees
  memo
  status
  log
  +timeoutHeight
  +signerAddress
  ..relations..
  events
  messages
  block
}

entity Message {
  +id
  +typeUrl
  json
  ..relations..
  transaction
  block
}

entity Event {
  +id
  +type
  log
  ..relations..
  attributes
  transaction
  block

}

entity EventAttribute {
  +id
  +key
  +value
  ..relations..
  event
}


Block ||- -o{ Transaction
Block ||- -o{ Message
Block ||- -o{ Event

Transaction ||- -|{ Event
Transaction ||- -|{ Message

EventAttribute }|- -|| Event
@enduml

PlantUML version 1.2022.7(Mon Aug 22 19:01:30 CEST 2022)
(GPL source distribution)
Java Runtime: OpenJDK Runtime Environment
JVM: OpenJDK 64-Bit Server VM
Default Encoding: UTF-8
Language: en
Country: US
--></g></svg>